<?xml version="1.0" encoding="utf-8"?>
<!-- Generator: Adobe Illustrator 22.1.0, SVG Export Plug-In . SVG Version: 6.00 Build 0)  -->
<svg version="1.1" id="Layer_1" xmlns="http://www.w3.org/2000/svg" xmlns:xlink="http://www.w3.org/1999/xlink" x="0px" y="0px"
	 viewBox="0 0 500 500" style="enable-background:new 0 0 500 500;" xml:space="preserve">
<style type="text/css">
	.st0{fill:#2F2F2F;}
	.st1{opacity:0.79;}
	.st2{fill:#DDDDDD;}
	.st3{opacity:0.82;}
	.st4{fill:#686868;}
	.st5{opacity:0.76;}
	.st6{fill:#6AC9D8;}
	.st7{opacity:0.99;}
	.st8{opacity:0.64;}
	.st9{opacity:0.57;}
	.st10{opacity:0.89;}
	.st11{opacity:0.61;}
	.st12{opacity:0.72;}
	.st13{opacity:0.87;}
	.st14{opacity:0.5;}
	.st15{opacity:0.44;}
	.st16{opacity:0.91;}
	.st17{opacity:0.66;}
	.st18{fill:#E58064;}
	.st19{opacity:0.55;}
	.st20{opacity:0.97;}
	.st21{opacity:0.85;}
	.st22{opacity:0.74;}
	.st23{opacity:0.69;}
	.st24{opacity:0.58;}
	.st25{opacity:0.98;}
	.st26{opacity:0.68;}
	.st27{opacity:0.54;}
	.st28{opacity:0.52;}
	.st29{opacity:0.71;}
	.st30{opacity:0.96;}
	.st31{opacity:0.65;}
	.st32{opacity:0.86;}
	.st33{opacity:0.94;}
	.st34{opacity:0.62;}
	.st35{opacity:0.56;}
	.st36{opacity:0.67;}
	.st37{opacity:0.6;}
	.st38{opacity:0.75;}
	.st39{opacity:0.81;}
	.st40{opacity:0.88;}
	.st41{opacity:0.63;}
	.st42{opacity:0.9;}
	.st43{opacity:0.92;}
	.st44{opacity:0.93;}
	.st45{filter:url(#Adobe_OpacityMaskFilter);}
	.st46{filter:url(#Adobe_OpacityMaskFilter_1_);}
	.st47{mask:url(#SVGID_1_);fill:url(#SVGID_2_);}
	.st48{fill:url(#SVGID_3_);}
	.st49{fill:#FFFFFF;}
	.st50{fill:#1F1F1F;}
	.st51{font-family:'ArialRoundedMTBold';}
	.st52{font-size:12px;}
	.st53{fill:#1F1F1F;stroke:#E58064;stroke-miterlimit:10;}
	.st54{font-size:21px;}
</style>
<rect class="st0" width="500" height="500"/>
<g>
	<g class="st1">
		
			<ellipse transform="matrix(0.8485 -0.5291 0.5291 0.8485 -116.3435 160.1569)" class="st2" cx="221.6" cy="283.3" rx="24.4" ry="24.4"/>
	</g>
	<g class="st3">
		
			<ellipse transform="matrix(0.9835 -0.1812 0.1812 0.9835 -37.7209 43.2919)" class="st4" cx="218.1" cy="228.1" rx="21.5" ry="21.5"/>
	</g>
	<g class="st5">
		
			<ellipse transform="matrix(0.8923 -0.4515 0.4515 0.8923 -82.8443 138.2112)" class="st6" cx="248.2" cy="242.7" rx="24.6" ry="24.6"/>
	</g>
	<g class="st7">
		<path class="st6" d="M323.6,224.6c-3.7-2.8-4.4-8-1.6-11.7c2.8-3.7,8-4.4,11.7-1.6c3.7,2.8,4.4,8,1.6,11.7
			C332.5,226.6,327.3,227.4,323.6,224.6z"/>
	</g>
	<g class="st8">
		<ellipse transform="matrix(1 -1.177177e-03 1.177177e-03 1 -0.3384 0.3863)" class="st4" cx="328" cy="287.7" rx="13" ry="13"/>
	</g>
	<g class="st9">
		<path class="st2" d="M339.5,363c-2.8-4.9-1.2-11.1,3.7-14c4.9-2.8,11.1-1.2,14,3.7c2.8,4.9,1.2,11.1-3.7,14
			C348.5,369.6,342.3,367.9,339.5,363z"/>
	</g>
	<g class="st10">
		
			<ellipse transform="matrix(0.1256 -0.9921 0.9921 0.1256 -54.4485 580.0643)" class="st6" cx="301.8" cy="320.9" rx="20.1" ry="20.1"/>
	</g>
	<g class="st11">
		
			<ellipse transform="matrix(0.4542 -0.8909 0.8909 0.4542 -133.4371 470.1547)" class="st4" cx="317" cy="344" rx="16.1" ry="16.1"/>
	</g>
	<g class="st12">
		
			<ellipse transform="matrix(0.4498 -0.8931 0.8931 0.4498 -122.411 404.6417)" class="st4" cx="267.2" cy="301.7" rx="17.2" ry="17.2"/>
	</g>
	<g class="st13">
		<path class="st6" d="M225.2,312.8c-5.1-5.1-5-13.4,0.1-18.5c5.1-5.1,13.4-5,18.5,0.1c5.1,5.1,5,13.4-0.1,18.5
			C238.5,317.9,230.2,317.9,225.2,312.8z"/>
	</g>
	<g class="st14">
		<path class="st4" d="M205.3,368.6c-11.6-5.1-16.9-18.6-11.8-30.2c5.1-11.6,18.6-16.9,30.2-11.8c11.6,5.1,16.9,18.6,11.8,30.2
			C230.5,368.3,217,373.6,205.3,368.6z"/>
	</g>
	<g>
		
			<ellipse transform="matrix(0.9692 -0.2461 0.2461 0.9692 -72.2992 46.8928)" class="st4" cx="151.4" cy="312.7" rx="10.6" ry="10.6"/>
	</g>
	<g class="st15">
		
			<ellipse transform="matrix(0.102 -0.9948 0.9948 0.102 -180.3049 401.9724)" class="st4" cx="132.5" cy="300.9" rx="12.9" ry="12.9"/>
	</g>
	<g class="st16">
		<circle class="st2" cx="134.1" cy="282.4" r="10.2"/>
	</g>
	<g class="st17">
		<path class="st2" d="M115.2,274.5c-7-7.1-7-18.5,0.1-25.6c7.1-7,18.5-7,25.6,0.1c7,7.1,7,18.5-0.1,25.6
			C133.6,281.7,122.2,281.6,115.2,274.5z"/>
	</g>
	<g class="st13">
		
			<ellipse transform="matrix(0.6426 -0.7662 0.7662 0.6426 -114.8035 175.4677)" class="st18" cx="130.7" cy="210.8" rx="8.7" ry="8.7"/>
	</g>
	<g class="st19">
		<circle class="st18" cx="143.8" cy="154.8" r="10.2"/>
	</g>
	<g class="st20">
		
			<ellipse transform="matrix(0.2151 -0.9766 0.9766 0.2151 17.9107 338.3911)" class="st6" cx="219.5" cy="158.1" rx="4.7" ry="4.7"/>
	</g>
	<g class="st21">
		
			<ellipse transform="matrix(0.7868 -0.6172 0.6172 0.7868 -56.0691 203.1912)" class="st18" cx="266.1" cy="182.8" rx="27.1" ry="27.1"/>
	</g>
	<g class="st22">
		<path class="st2" d="M291.2,198.6c-4.2-7.4-1.5-16.9,5.9-21c7.4-4.2,16.9-1.5,21,5.9c4.2,7.4,1.5,16.9-5.9,21
			S295.4,206.1,291.2,198.6z"/>
	</g>
	<g class="st23">
		<path class="st6" d="M365.7,226.8c1.5-3.6,5.7-5.3,9.3-3.7c3.6,1.5,5.3,5.7,3.7,9.3c-1.5,3.6-5.7,5.3-9.3,3.7
			C365.9,234.6,364.2,230.4,365.7,226.8z"/>
	</g>
	<g class="st24">
		
			<ellipse transform="matrix(0.5134 -0.8582 0.8582 0.5134 -17.6995 404.9643)" class="st18" cx="348.2" cy="218.1" rx="23.2" ry="23.2"/>
	</g>
	<g class="st25">
		<path class="st18" d="M338.5,310.2c1.1-6.6,7.4-11.1,14-10c6.6,1.1,11.1,7.4,10,14c-1.1,6.6-7.4,11.1-14,10
			C341.9,323.1,337.4,316.8,338.5,310.2z"/>
	</g>
	<g class="st9">
		
			<ellipse transform="matrix(0.3714 -0.9285 0.9285 0.3714 -33.3176 506.6753)" class="st2" cx="357.5" cy="277.9" rx="19.3" ry="19.3"/>
	</g>
	<g class="st25">
		<ellipse transform="matrix(0.9635 -0.2677 0.2677 0.9635 -65.1832 96.1619)" class="st4" cx="320.1" cy="287.2" rx="24" ry="24"/>
	</g>
	<g class="st7">
		
			<ellipse transform="matrix(0.8166 -0.5772 0.5772 0.8166 -153.8752 235.5454)" class="st18" cx="293.8" cy="359.9" rx="22.8" ry="22.8"/>
	</g>
	<g class="st26">
		
			<ellipse transform="matrix(0.2168 -0.9762 0.9762 0.2168 -164.1567 537.132)" class="st4" cx="252.7" cy="370.9" rx="20.4" ry="20.4"/>
	</g>
	<g class="st27">
		
			<ellipse transform="matrix(0.9858 -0.1678 0.1678 0.9858 -53.9096 31.567)" class="st6" cx="159.8" cy="334.8" rx="15.9" ry="15.9"/>
	</g>
	<g class="st28">
		
			<ellipse transform="matrix(0.2547 -0.967 0.967 0.2547 -266.3006 393.4648)" class="st4" cx="122.1" cy="369.5" rx="7.9" ry="7.9"/>
	</g>
	<g class="st3">
		
			<ellipse transform="matrix(0.7926 -0.6098 0.6098 0.7926 -171.3378 128.8676)" class="st6" cx="103.7" cy="316.3" rx="15.6" ry="15.6"/>
	</g>
	<g class="st19">
		<path class="st6" d="M42.5,310.3c-2.7-2.4-2.9-6.5-0.5-9.2c2.4-2.7,6.5-2.9,9.2-0.5c2.7,2.4,2.9,6.5,0.5,9.2
			S45.1,312.7,42.5,310.3z"/>
	</g>
	<g class="st29">
		
			<ellipse transform="matrix(0.1239 -0.9923 0.9923 0.1239 -213.1334 297.0695)" class="st6" cx="61.7" cy="269.2" rx="16.6" ry="16.6"/>
	</g>
	<g class="st12">
		<path class="st4" d="M80.7,141.4c-3.4-1.3-5.1-5.2-3.7-8.6c1.3-3.4,5.2-5.1,8.6-3.7c3.4,1.3,5.1,5.2,3.7,8.6
			C87.9,141,84.1,142.7,80.7,141.4z"/>
	</g>
	<g class="st30">
		
			<ellipse transform="matrix(0.8877 -0.4604 0.4604 0.8877 -35.5337 65.6978)" class="st18" cx="116.9" cy="105.7" rx="10.7" ry="10.7"/>
	</g>
	<g class="st31">
		
			<ellipse transform="matrix(0.3654 -0.9309 0.9309 0.3654 19.6435 176.4041)" class="st6" cx="139.2" cy="73.8" rx="13.9" ry="13.9"/>
	</g>
	<g class="st32">
		<path class="st18" d="M177.4,115.5c-3.8-1.6-5.6-6.1-4-9.9c1.6-3.8,6.1-5.6,9.9-4c3.8,1.6,5.6,6.1,4,9.9
			C185.7,115.4,181.3,117.2,177.4,115.5z"/>
	</g>
	<g class="st33">
		
			<ellipse transform="matrix(0.5772 -0.8166 0.8166 0.5772 -3.7952 214.9452)" class="st2" cx="205.7" cy="111.1" rx="15.4" ry="15.4"/>
	</g>
	<g class="st34">
		<path class="st18" d="M263.1,76.7c-3.8-0.7-6.4-4.4-5.7-8.3c0.7-3.8,4.4-6.4,8.3-5.7c3.8,0.7,6.4,4.4,5.7,8.3
			C270.6,74.9,266.9,77.4,263.1,76.7z"/>
	</g>
	<g class="st29">
		<ellipse transform="matrix(1 -9.021058e-03 9.021058e-03 1 -0.572 2.4921)" class="st2" cx="276" cy="64.7" rx="24.1" ry="24.1"/>
	</g>
	<g class="st35">
		<path class="st18" d="M277.5,130c-4.3-9.4-0.1-20.4,9.2-24.7c9.4-4.3,20.4-0.1,24.7,9.2c4.3,9.4,0.1,20.4-9.2,24.7
			C292.8,143.5,281.8,139.3,277.5,130z"/>
	</g>
	<g class="st9">
		
			<ellipse transform="matrix(0.952 -0.306 0.306 0.952 -25.4858 104.7024)" class="st2" cx="321.2" cy="133.6" rx="13.4" ry="13.4"/>
	</g>
	<g class="st36">
		<ellipse transform="matrix(0.936 -0.3521 0.3521 0.936 -21.5426 141.0742)" class="st18" cx="377" cy="129.8" rx="7.7" ry="7.7"/>
	</g>
	<g class="st37">
		
			<ellipse transform="matrix(0.6897 -0.7241 0.7241 0.6897 -24.9778 309.9539)" class="st18" cx="349.1" cy="184.1" rx="24.2" ry="24.2"/>
	</g>
	<g class="st9">
		<path class="st18" d="M409.2,198.8c0.5-2.8,3.3-4.7,6.1-4.1c2.8,0.5,4.7,3.3,4.1,6.1c-0.5,2.8-3.3,4.7-6.1,4.1
			C410.5,204.3,408.6,201.6,409.2,198.8z"/>
	</g>
	<g class="st7">
		
			<ellipse transform="matrix(0.2392 -0.971 0.971 0.2392 74.3821 583.5617)" class="st4" cx="409.6" cy="244.3" rx="16.5" ry="16.5"/>
	</g>
	<g class="st19">
		<path class="st2" d="M465,290c-1.5-3.9,0.5-8.3,4.4-9.8c3.9-1.5,8.3,0.5,9.8,4.4c1.5,3.9-0.5,8.3-4.4,9.8
			C470.9,295.8,466.5,293.9,465,290z"/>
	</g>
	<g class="st38">
		<ellipse transform="matrix(0.2059 -0.9786 0.9786 0.2059 -34.0284 631.3946)" class="st2" cx="372" cy="336.7" rx="21" ry="21"/>
	</g>
	<g class="st39">
		
			<ellipse transform="matrix(0.8275 -0.5614 0.5614 0.8275 -93.0134 273.1082)" class="st6" cx="398" cy="287.9" rx="20.6" ry="20.6"/>
	</g>
	<g class="st40">
		<path class="st4" d="M421.6,407.8c-2.2-0.9-3.2-3.4-2.3-5.5c0.9-2.2,3.4-3.2,5.5-2.3c2.2,0.9,3.2,3.4,2.3,5.5
			C426.2,407.7,423.7,408.7,421.6,407.8z"/>
	</g>
	<g class="st26">
		
			<ellipse transform="matrix(0.9945 -0.1047 0.1047 0.9945 -42.641 38.9978)" class="st4" cx="350" cy="425.5" rx="10.3" ry="10.3"/>
	</g>
	<g class="st26">
		
			<ellipse transform="matrix(0.9426 -0.3339 0.3339 0.9426 -124.3232 129.6446)" class="st18" cx="315" cy="426.5" rx="16" ry="16"/>
	</g>
	<g class="st37">
		
			<ellipse transform="matrix(8.409412e-02 -0.9965 0.9965 8.409412e-02 -121.6481 637.4705)" class="st4" cx="285.9" cy="384.9" rx="19" ry="19"/>
	</g>
	<g class="st37">
		
			<ellipse transform="matrix(0.9783 -0.2071 0.2071 0.9783 -85.7632 61.8451)" class="st18" cx="252.5" cy="440.6" rx="16.3" ry="16.3"/>
	</g>
	<g class="st17">
		<path class="st4" d="M209.7,427.7c-1.9-4.6,0.4-9.9,5-11.7c4.6-1.9,9.9,0.4,11.7,5c1.9,4.6-0.4,9.9-5,11.7
			C216.9,434.5,211.6,432.3,209.7,427.7z"/>
	</g>
	<g class="st1">
		
			<ellipse transform="matrix(0.6445 -0.7646 0.7646 0.6445 -116.3607 276.7144)" class="st4" cx="239.4" cy="263.5" rx="29" ry="29"/>
	</g>
	<g class="st3">
		<circle class="st18" cx="203.7" cy="217.6" r="25.5"/>
	</g>
	<g class="st5">
		
			<ellipse transform="matrix(3.998883e-02 -0.9992 0.9992 3.998883e-02 13.3029 472.6374)" class="st2" cx="252.6" cy="229.4" rx="29.2" ry="29.2"/>
	</g>
	<g class="st7">
		
			<ellipse transform="matrix(0.6428 -0.7661 0.7661 0.6428 -32.9873 318.8722)" class="st6" cx="325.4" cy="194.8" rx="10.9" ry="10.9"/>
	</g>
	<g class="st8">
		<path class="st18" d="M364.7,271.6c-0.3-8.5,6.4-15.7,15-15.9c8.5-0.3,15.7,6.4,15.9,15c0.3,8.5-6.4,15.7-15,15.9
			C372.1,286.8,365,280.1,364.7,271.6z"/>
	</g>
	<g class="st9">
		<path class="st4" d="M361.6,364.4c-3.9-5.5-2.6-13.1,2.9-16.9c5.5-3.9,13.1-2.6,16.9,2.9c3.9,5.5,2.6,13.1-2.9,16.9
			C373,371.2,365.5,369.9,361.6,364.4z"/>
	</g>
	<g class="st10">
		
			<ellipse transform="matrix(0.9761 -0.2174 0.2174 0.9761 -61.0389 82.518)" class="st18" cx="344.5" cy="318.6" rx="23.8" ry="23.8"/>
	</g>
	<g class="st11">
		<circle class="st6" cx="336.1" cy="352.3" r="19.2"/>
	</g>
	<g class="st12">
		
			<ellipse transform="matrix(0.3057 -0.9521 0.9521 0.3057 -105.1329 483.9581)" class="st18" cx="279.3" cy="314.1" rx="20.4" ry="20.4"/>
	</g>
	<g class="st13">
		
			<ellipse transform="matrix(0.7724 -0.6351 0.6351 0.7724 -141.2141 216.165)" class="st6" cx="231" cy="305.1" rx="15.5" ry="15.5"/>
	</g>
	<g class="st29">
		<path class="st18" d="M128.3,336.1c-6.3-3-9-10.5-6-16.8c3-6.3,10.5-9,16.8-6c6.3,3,9,10.5,6,16.8
			C142.1,336.4,134.6,339.1,128.3,336.1z"/>
	</g>
	<g class="st41">
		
			<ellipse transform="matrix(0.4199 -0.9076 0.9076 0.4199 -253.3625 291.0982)" class="st6" cx="101" cy="343.7" rx="15.3" ry="15.3"/>
	</g>
	<g class="st16">
		<path class="st18" d="M103.3,296.5c-5.2-4.2-6.1-11.8-2-17c4.2-5.2,11.8-6.1,17-2c5.2,4.2,6.1,11.8,2,17
			C116.2,299.8,108.6,300.7,103.3,296.5z"/>
	</g>
	<g class="st17">
		
			<ellipse transform="matrix(0.9962 -8.652724e-02 8.652724e-02 0.9962 -22.7217 9.7042)" class="st6" cx="100.6" cy="267" rx="21.5" ry="21.5"/>
	</g>
	<g class="st13">
		
			<ellipse transform="matrix(0.4958 -0.8684 0.8684 0.4958 -129.527 189.4407)" class="st4" cx="98.4" cy="206.3" rx="10.3" ry="10.3"/>
	</g>
	<g class="st19">
		<path class="st4" d="M98,145.4c-3.8-5.5-2.3-13,3.2-16.8c5.5-3.8,13-2.3,16.8,3.2c3.8,5.5,2.3,13-3.2,16.8
			C109.2,152.3,101.7,150.9,98,145.4z"/>
	</g>
	<g class="st20">
		<path class="st4" d="M193.4,137.9c-1.9-2.5-1.4-6,1-7.9c2.5-1.9,6-1.4,7.9,1c1.9,2.5,1.4,6-1,7.9
			C198.9,140.8,195.3,140.3,193.4,137.9z"/>
	</g>
	<g class="st21">
		
			<ellipse transform="matrix(0.812 -0.5836 0.5836 0.812 -25.531 176.952)" class="st4" cx="261.9" cy="128.1" rx="27.3" ry="27.3"/>
	</g>
	<g class="st22">
		
			<ellipse transform="matrix(4.752117e-03 -1 1 4.752117e-03 140.5538 474.0485)" class="st4" cx="308.4" cy="166.4" rx="11.8" ry="11.8"/>
	</g>
	<g class="st23">
		
			<ellipse transform="matrix(2.070626e-02 -0.9998 0.9998 2.070626e-02 175.3546 584.9827)" class="st18" cx="386.3" cy="203" rx="8.4" ry="8.4"/>
	</g>
	<g class="st24">
		
			<ellipse transform="matrix(0.9815 -0.1917 0.1917 0.9815 -34.1925 77.9657)" class="st4" cx="385.8" cy="215.7" rx="27.6" ry="27.6"/>
	</g>
	<g>
		<path class="st18" d="M380,267c0.6-8,7.6-14,15.6-13.4c8,0.6,14,7.6,13.4,15.6c-0.6,8-7.6,14-15.6,13.4
			C385.4,281.9,379.4,275,380,267z"/>
	</g>
	<g class="st9">
		
			<ellipse transform="matrix(0.9989 -4.659426e-02 4.659426e-02 0.9989 -14.9628 19.8218)" class="st4" cx="417.7" cy="330.9" rx="22.9" ry="22.9"/>
	</g>
	<g class="st25">
		
			<ellipse transform="matrix(0.9558 -0.2941 0.2941 0.9558 -90.416 125.783)" class="st4" cx="373.1" cy="363.6" rx="28.5" ry="28.5"/>
	</g>
	<g class="st7">
		
			<ellipse transform="matrix(0.6625 -0.7491 0.7491 0.6625 -195.4165 363.9143)" class="st18" cx="306.1" cy="398.8" rx="27.2" ry="27.2"/>
	</g>
	<g class="st27">
		
			<ellipse transform="matrix(0.4853 -0.8744 0.8744 0.4853 -230.4761 346.7065)" class="st6" cx="179.2" cy="369.1" rx="26.6" ry="26.6"/>
	</g>
	<g class="st28">
		<path class="st2" d="M99.7,403.6c2.1-4.8,7.7-6.9,12.5-4.8c4.8,2.1,6.9,7.7,4.8,12.5c-2.1,4.8-7.7,6.9-12.5,4.8
			S97.6,408.4,99.7,403.6z"/>
	</g>
	<g class="st3">
		
			<ellipse transform="matrix(2.591883e-03 -1 1 2.591883e-03 -262.5574 432.7132)" class="st4" cx="85.6" cy="348" rx="18.5" ry="18.5"/>
	</g>
	<g class="st3">
		
			<ellipse transform="matrix(0.2508 -0.968 0.968 0.2508 -45.6606 444.9524)" class="st18" cx="264.6" cy="252" rx="24.3" ry="24.3"/>
	</g>
	<g class="st19">
		<path class="st2" d="M21.5,291.4c-3.4-2.6-4.1-7.4-1.5-10.8c2.6-3.4,7.4-4.1,10.8-1.5c3.4,2.6,4.1,7.4,1.5,10.8
			C29.7,293.3,24.9,294,21.5,291.4z"/>
	</g>
	<g class="st42">
		<path class="st18" d="M18,217.2c2.6-7.7,11-11.7,18.6-9.1c7.7,2.6,11.7,11,9.1,18.6c-2.6,7.7-11,11.7-18.6,9.1
			C19.5,233.2,15.4,224.9,18,217.2z"/>
	</g>
	<g class="st12">
		<path class="st18" d="M31.9,129.4c-4.2-1.2-6.6-5.6-5.3-9.8c1.2-4.2,5.6-6.6,9.8-5.3c4.2,1.2,6.6,5.6,5.3,9.8
			C40.4,128.2,36,130.6,31.9,129.4z"/>
	</g>
	<g class="st12">
		
			<ellipse transform="matrix(0.9999 -1.327092e-02 1.327092e-02 0.9999 -0.9796 6.0458)" class="st6" cx="455.1" cy="76.8" rx="11" ry="11"/>
	</g>
	<g class="st30">
		
			<ellipse transform="matrix(1.813940e-02 -0.9998 0.9998 1.813940e-02 -31.469 154.5844)" class="st6" cx="63" cy="93.3" rx="12.7" ry="12.7"/>
	</g>
	<g class="st30">
		<ellipse transform="matrix(0.99 -0.1408 0.1408 0.99 -49.5762 25.712)" class="st18" cx="157" cy="363.3" rx="16.6" ry="16.6"/>
	</g>
	<g class="st31">
		<ellipse transform="matrix(0.8305 -0.557 0.557 0.8305 -11.2358 65.4702)" class="st4" cx="102" cy="51.2" rx="16.6" ry="16.6"/>
	</g>
	<g class="st32">
		<path class="st6" d="M143.6,88.5c-4.7-1.5-7.3-6.6-5.8-11.3c1.5-4.7,6.6-7.3,11.3-5.8c4.7,1.5,7.3,6.6,5.8,11.3
			C153.4,87.5,148.4,90.1,143.6,88.5z"/>
	</g>
	<g class="st33">
		
			<ellipse transform="matrix(0.3984 -0.9172 0.9172 0.3984 32.5423 210.3629)" class="st18" cx="176.6" cy="80.4" rx="18.3" ry="18.3"/>
	</g>
	<g class="st34">
		<path class="st6" d="M248.9,34.6c-4.6-0.4-8-4.5-7.6-9.2c0.4-4.6,4.5-8,9.2-7.6c4.6,0.4,8,4.5,7.6,9.2
			C257.6,31.6,253.5,35,248.9,34.6z"/>
	</g>
	<g class="st29">
		
			<ellipse transform="matrix(0.4371 -0.8994 0.8994 0.4371 131.5724 336.0407)" class="st18" cx="334.2" cy="62.9" rx="28.6" ry="28.6"/>
	</g>
	<g class="st35">
		
			<ellipse transform="matrix(0.2781 -0.9606 0.9606 0.2781 131.6203 341.3575)" class="st18" cx="292.9" cy="83.1" rx="22.2" ry="22.2"/>
	</g>
	<g class="st36">
		<path class="st18" d="M370.9,92.7c-1.9-4.7,0.5-10.1,5.2-11.9c4.7-1.9,10.1,0.5,11.9,5.2s-0.5,10.1-5.2,11.9
			C378.1,99.7,372.7,97.4,370.9,92.7z"/>
	</g>
	<g class="st37">
		<path class="st2" d="M390.7,154.8c9.8-12.5,27.9-14.6,40.4-4.8c12.5,9.8,14.6,27.9,4.8,40.4c-9.8,12.5-27.9,14.6-40.4,4.8
			C383,185.3,380.9,167.2,390.7,154.8z"/>
	</g>
	<g class="st9">
		<path class="st4" d="M426.8,162.6c0.3-3.4,3.4-5.9,6.8-5.5c3.4,0.3,5.9,3.4,5.5,6.8s-3.4,5.9-6.8,5.5
			C428.9,169.1,426.4,166,426.8,162.6z"/>
	</g>
	<g class="st7">
		
			<ellipse transform="matrix(0.9353 -0.354 0.354 0.9353 -32.3728 175.3533)" class="st2" cx="463.2" cy="176.2" rx="19.6" ry="19.6"/>
	</g>
	<g class="st19">
		
			<ellipse transform="matrix(0.8212 -0.5706 0.5706 0.8212 -44.0026 292.9875)" class="st2" cx="445.6" cy="216.7" rx="9.6" ry="9.6"/>
	</g>
	<g class="st38">
		<ellipse transform="matrix(0.5529 -0.8333 0.8333 0.5529 -40.0511 485.4152)" class="st4" cx="432.3" cy="280" rx="25" ry="25"/>
	</g>
	<g class="st40">
		<path class="st18" d="M451.8,392.9c-2.7-0.8-4.2-3.7-3.3-6.3c0.8-2.7,3.7-4.2,6.3-3.3c2.7,0.8,4.2,3.7,3.3,6.3
			C457.3,392.2,454.5,393.7,451.8,392.9z"/>
	</g>
	<g class="st26">
		<path class="st2" d="M346.4,103.1c-0.2-6.8,5.2-12.4,11.9-12.6c6.8-0.2,12.4,5.2,12.6,11.9s-5.2,12.4-11.9,12.6
			C352.2,115.2,346.6,109.9,346.4,103.1z"/>
	</g>
	<g>
		
			<ellipse transform="matrix(0.2689 -0.9632 0.9632 0.2689 -318.5237 377.1614)" class="st2" cx="89.2" cy="398.4" rx="22.6" ry="22.6"/>
	</g>
	<g class="st37">
		
			<ellipse transform="matrix(0.8365 -0.548 0.548 0.8365 -209.1709 225.9034)" class="st6" cx="273.9" cy="463.4" rx="19.4" ry="19.4"/>
	</g>
	<g class="st17">
		
			<ellipse transform="matrix(0.9795 -0.2014 0.2014 0.9795 -86.5987 50.4079)" class="st6" cx="204.4" cy="450.7" rx="10.7" ry="10.7"/>
	</g>
	<g class="st1">
		
			<ellipse transform="matrix(0.3528 -0.9357 0.9357 0.3528 -40.6262 436.2303)" class="st2" cx="295" cy="247.5" rx="24.4" ry="24.4"/>
	</g>
	<g class="st3">
		
			<ellipse transform="matrix(0.9983 -5.887210e-02 5.887210e-02 0.9983 -16.3504 17.3646)" class="st2" cx="286.5" cy="286.2" rx="21.5" ry="21.5"/>
	</g>
	<g class="st5">
		
			<ellipse transform="matrix(0.9711 -0.2388 0.2388 0.9711 -50.3162 85.0716)" class="st2" cx="325.9" cy="250.2" rx="24.6" ry="24.6"/>
	</g>
	<g class="st7">
		<path class="st6" d="M207.3,289c3.9,2.4,5.1,7.6,2.7,11.5s-7.6,5.1-11.5,2.7c-3.9-2.4-5.1-7.6-2.7-11.5
			C198.3,287.8,203.4,286.6,207.3,289z"/>
	</g>
	<g class="st8">
		<path class="st4" d="M176.6,230.7c0.2,7.2-5.4,13.2-12.6,13.4c-7.2,0.2-13.2-5.4-13.4-12.6c-0.2-7.2,5.4-13.2,12.6-13.4
			C170.3,217.9,176.3,223.5,176.6,230.7z"/>
	</g>
	<g class="st9">
		
			<ellipse transform="matrix(0.9998 -2.173139e-02 2.173139e-02 0.9998 -3.532 3.8031)" class="st4" cx="173.2" cy="164.4" rx="10.2" ry="10.2"/>
	</g>
	<g class="st10">
		
			<ellipse transform="matrix(1 -9.854641e-03 9.854641e-03 1 -1.799 1.9169)" class="st2" cx="193.6" cy="183.5" rx="20.1" ry="20.1"/>
	</g>
	<g class="st11">
		
			<ellipse transform="matrix(0.3787 -0.9255 0.9255 0.3787 -25.9668 286.8036)" class="st4" cx="200.6" cy="162.7" rx="16.1" ry="16.1"/>
	</g>
	<g class="st12">
		
			<ellipse transform="matrix(0.9499 -0.3124 0.3124 0.9499 -48.4606 87.3792)" class="st2" cx="248.5" cy="194.9" rx="17.2" ry="17.2"/>
	</g>
	<g class="st13">
		<circle class="st6" cx="289.1" cy="202.4" r="19"/>
	</g>
	<g class="st14">
		<ellipse transform="matrix(0.893 -0.4501 0.4501 0.893 -37.968 154.0509)" class="st6" cx="305" cy="156.9" rx="22.9" ry="22.9"/>
	</g>
	<g class="st29">
		<path class="st4" d="M375.5,176.4c5.3,2.5,7.5,8.9,5,14.2c-2.5,5.3-8.9,7.5-14.2,5s-7.5-8.9-5-14.2
			C363.9,176.1,370.2,173.9,375.5,176.4z"/>
	</g>
	<g class="st41">
		
			<ellipse transform="matrix(0.1299 -0.9915 0.9915 0.1299 159.7099 560.6101)" class="st2" cx="399.3" cy="189.3" rx="12.9" ry="12.9"/>
	</g>
	<g class="st16">
		
			<ellipse transform="matrix(0.4425 -0.8968 0.8968 0.4425 22.3051 471.2744)" class="st6" cx="390.2" cy="217.7" rx="10.2" ry="10.2"/>
	</g>
	<g class="st17">
		
			<ellipse transform="matrix(0.9994 -3.370672e-02 3.370672e-02 0.9994 -8.2046 12.4387)" class="st6" cx="364.8" cy="249.6" rx="18.1" ry="18.1"/>
	</g>
	<g class="st13">
		<path class="st6" d="M409.2,284.2c0.8,4.7-2.4,9.2-7.1,10c-4.7,0.8-9.2-2.4-10-7.1s2.4-9.2,7.1-10
			C404,276.2,408.4,279.4,409.2,284.2z"/>
	</g>
	<g class="st19">
		<path class="st4" d="M385,300.9c3.2,4.6,2,11-2.7,14.1c-4.6,3.2-11,2-14.1-2.7c-3.2-4.6-2-11,2.7-14.1
			C375.5,295,381.9,296.2,385,300.9z"/>
	</g>
	<g>
		<path class="st18" d="M320.7,338.2c1.6,2.1,1.2,5-0.9,6.6c-2.1,1.6-5,1.2-6.6-0.9c-1.6-2.1-1.2-5,0.9-6.6
			C316.1,335.7,319.1,336.1,320.7,338.2z"/>
	</g>
	<g>
		<ellipse transform="matrix(0.9094 -0.4159 0.4159 0.9094 -117.017 136.172)" class="st2" cx="254.1" cy="336.7" rx="23" ry="23"/>
	</g>
	<g class="st22">
		
			<ellipse transform="matrix(0.9887 -0.1497 0.1497 0.9887 -45.2565 37.1196)" class="st18" cx="223.9" cy="319.2" rx="10" ry="10"/>
	</g>
	<g class="st23">
		
			<ellipse transform="matrix(0.8844 -0.4667 0.4667 0.8844 -116.274 107.2517)" class="st4" cx="158.4" cy="288.4" rx="7.1" ry="7.1"/>
	</g>
	<g class="st24">
		
			<ellipse transform="matrix(0.7329 -0.6803 0.6803 0.7329 -146.0443 180.0661)" class="st18" cx="156.3" cy="276" rx="23.2" ry="23.2"/>
	</g>
	<g class="st25">
		<path class="st18" d="M167.7,227.7c-0.5,6.7-6.4,11.8-13.1,11.2c-6.7-0.5-11.8-6.4-11.2-13.1c0.5-6.7,6.4-11.8,13.1-11.2
			S168.3,221,167.7,227.7z"/>
	</g>
	<g class="st9">
		
			<ellipse transform="matrix(0.1046 -0.9945 0.9945 0.1046 -61.4447 289.9624)" class="st18" cx="130.3" cy="179.1" rx="19.3" ry="19.3"/>
	</g>
	<g class="st25">
		<ellipse transform="matrix(0.9306 -0.3661 0.3661 0.9306 -38.8103 81.9017)" class="st4" cx="196.5" cy="143.3" rx="24" ry="24"/>
	</g>
	<g class="st7">
		
			<ellipse transform="matrix(0.2549 -0.967 0.967 0.2549 -124.3479 322.9407)" class="st6" cx="147.4" cy="242.2" rx="22.8" ry="22.8"/>
	</g>
	<g class="st33">
		<ellipse transform="matrix(0.93 -0.3675 0.3675 0.93 -31.8209 106.95)" class="st18" cx="264.9" cy="137" rx="20.4" ry="20.4"/>
	</g>
	<g class="st43">
		<path class="st2" d="M281.9,100.8c2.1,3.7,0.9,8.4-2.8,10.5c-3.7,2.1-8.4,0.9-10.5-2.8c-2.1-3.7-0.9-8.4,2.8-10.5
			C275,95.8,279.7,97.1,281.9,100.8z"/>
	</g>
	<g>
		
			<ellipse transform="matrix(0.2802 -0.9599 0.9599 0.2802 75.1793 421.3858)" class="st18" cx="318.6" cy="160.6" rx="22.3" ry="22.3"/>
	</g>
	<g class="st28">
		<path class="st4" d="M399.6,121.2c-1.8,4-6.5,5.8-10.5,4c-4-1.8-5.8-6.5-4-10.5c1.8-4,6.5-5.8,10.5-4S401.3,117.2,399.6,121.2z"/>
	</g>
	<g>
		
			<ellipse transform="matrix(0.9725 -0.233 0.233 0.9725 -30.0027 102.3118)" class="st6" cx="418.1" cy="178.2" rx="15.6" ry="15.6"/>
	</g>
	<g class="st19">
		<path class="st4" d="M466.5,191.2c2.9,2.2,3.4,6.2,1.3,9.1c-2.2,2.9-6.2,3.4-9.1,1.3c-2.9-2.2-3.4-6.2-1.3-9.1
			C459.5,189.6,463.6,189,466.5,191.2z"/>
	</g>
	<g class="st29">
		<path class="st18" d="M188.9,243.5c8.3,3.9,11.9,13.7,8,22c-3.9,8.3-13.7,11.9-22,8c-8.3-3.9-11.9-13.7-8-22
			C170.7,243.2,180.6,239.6,188.9,243.5z"/>
	</g>
	<g class="st42">
		
			<ellipse transform="matrix(0.9554 -0.2952 0.2952 0.9554 -80.1236 134.7839)" class="st6" cx="406.3" cy="332.7" rx="12.3" ry="12.3"/>
	</g>
	<g class="st12">
		<path class="st18" d="M464.3,334.2c4.7,1.4,7.3,6.2,6,10.9c-1.4,4.7-6.2,7.3-10.9,6c-4.7-1.4-7.3-6.2-6-10.9
			C454.7,335.6,459.6,332.9,464.3,334.2z"/>
	</g>
	<g class="st30">
		
			<ellipse transform="matrix(0.8055 -0.5925 0.5925 0.8055 -145.5762 324.5871)" class="st6" cx="421.7" cy="384.1" rx="10.7" ry="10.7"/>
	</g>
	<g class="st31">
		
			<ellipse transform="matrix(0.9921 -0.1253 0.1253 0.9921 -49.7012 53.3576)" class="st2" cx="399.4" cy="421.8" rx="13.9" ry="13.9"/>
	</g>
	<g class="st32">
		
			<ellipse transform="matrix(0.997 -7.710084e-02 7.710084e-02 0.997 -29.1424 28.9424)" class="st6" cx="360.3" cy="391.9" rx="7.6" ry="7.6"/>
	</g>
	<g class="st33">
		
			<ellipse transform="matrix(0.8873 -0.4611 0.4611 0.8873 -134.305 192.8757)" class="st2" cx="327.6" cy="371.3" rx="15.4" ry="15.4"/>
	</g>
	<g class="st34">
		<path class="st2" d="M284.7,431.9c3.9,0.4,6.7,3.8,6.4,7.7s-3.8,6.7-7.7,6.4s-6.7-3.8-6.4-7.7
			C277.4,434.4,280.8,431.6,284.7,431.9z"/>
	</g>
	<g class="st44">
		<ellipse transform="matrix(0.637 -0.7709 0.7709 0.637 -218.721 347.4702)" class="st2" cx="259.6" cy="406" rx="16" ry="16"/>
	</g>
	<g class="st35">
		
			<ellipse transform="matrix(0.5161 -0.8565 0.8565 0.5161 -224.5769 379.2963)" class="st6" cx="223.4" cy="388.4" rx="18.7" ry="18.7"/>
	</g>
	<g class="st9">
		
			<ellipse transform="matrix(0.8474 -0.531 0.531 0.8474 -168.2354 173.5296)" class="st6" cx="217.7" cy="379.4" rx="13.4" ry="13.4"/>
	</g>
	<g class="st36">
		<path class="st2" d="M169.7,385.4c1.6,4-0.4,8.5-4.4,10c-4,1.6-8.5-0.4-10-4.4c-1.6-4,0.4-8.5,4.4-10
			C163.7,379.5,168.1,381.5,169.7,385.4z"/>
	</g>
	<g class="st37">
		
			<ellipse transform="matrix(0.9885 -0.1512 0.1512 0.9885 -43.7913 30.0489)" class="st2" cx="175.7" cy="303" rx="24.2" ry="24.2"/>
	</g>
	<g class="st9">
		<path class="st2" d="M124.4,322.4c-0.3,2.9-2.8,4.9-5.7,4.7c-2.9-0.3-4.9-2.8-4.7-5.7c0.3-2.9,2.8-4.9,5.7-4.7
			C122.6,316.9,124.7,319.5,124.4,322.4z"/>
	</g>
	<g class="st7">
		
			<ellipse transform="matrix(0.5354 -0.8446 0.8446 0.5354 -227.9613 202.0981)" class="st4" cx="69.7" cy="308.3" rx="16.5" ry="16.5"/>
	</g>
	<g class="st19">
		
			<ellipse transform="matrix(0.3275 -0.9448 0.9448 0.3275 -190.3882 212.1232)" class="st2" cx="53.8" cy="239.8" rx="7.6" ry="7.6"/>
	</g>
	<g class="st38">
		<ellipse transform="matrix(0.8856 -0.4644 0.4644 0.8856 -87.0829 71.6764)" class="st18" cx="102" cy="212.6" rx="21" ry="21"/>
	</g>
	<g class="st39">
		
			<ellipse transform="matrix(0.7683 -0.6401 0.6401 0.7683 -95.8193 100.5403)" class="st2" cx="91" cy="182.6" rx="20.6" ry="20.6"/>
	</g>
	<g class="st40">
		<path class="st2" d="M92.3,114.3c2.2,0.7,3.5,3.1,2.8,5.3c-0.7,2.2-3.1,3.5-5.3,2.8c-2.2-0.7-3.5-3.1-2.8-5.3
			C87.7,114.9,90.1,113.6,92.3,114.3z"/>
	</g>
	<g class="st26">
		<circle class="st18" cx="155.6" cy="85" r="10.3"/>
	</g>
	<g class="st37">
		<path class="st18" d="M227.6,75.9c3.8,9.8-1.1,20.8-10.9,24.6c-9.8,3.8-20.8-1.1-24.6-10.9c-3.8-9.8,1.1-20.8,10.9-24.6
			C212.8,61.2,223.8,66.1,227.6,75.9z"/>
	</g>
	<g class="st37">
		
			<ellipse transform="matrix(0.4486 -0.8938 0.8938 0.4486 66.4006 274.7575)" class="st2" cx="255.9" cy="83.6" rx="16.3" ry="16.3"/>
	</g>
	<g class="st17">
		<ellipse transform="matrix(0.3092 -0.951 0.951 0.3092 126.7403 335.9845)" class="st18" cx="294.6" cy="80.8" rx="9" ry="9"/>
	</g>
	<g class="st1">
		
			<ellipse transform="matrix(0.9961 -8.875457e-02 8.875457e-02 0.9961 -15.7473 20.1917)" class="st4" cx="219.2" cy="187.2" rx="24.4" ry="24.4"/>
	</g>
	<g class="st3">
		
			<ellipse transform="matrix(8.921026e-02 -0.996 0.996 8.921026e-02 49.6315 498.9379)" class="st18" cx="297.6" cy="222.3" rx="21.5" ry="21.5"/>
	</g>
	<g class="st5">
		
			<ellipse transform="matrix(0.4009 -0.9161 0.9161 0.4009 -72.9738 279.9088)" class="st6" cx="177.5" cy="195.8" rx="24.6" ry="24.6"/>
	</g>
	<g class="st7">
		<path class="st4" d="M192.2,225.9c3.7,2.8,4.4,8,1.6,11.7c-2.8,3.7-8,4.4-11.7,1.6c-3.7-2.8-4.4-8-1.6-11.7
			C183.3,223.9,188.5,223.1,192.2,225.9z"/>
	</g>
	<g class="st8">
		
			<ellipse transform="matrix(0.7528 -0.6583 0.6583 0.7528 -70.1266 141.8357)" class="st6" cx="153.8" cy="164.3" rx="13" ry="13"/>
	</g>
	<g class="st9">
		<path class="st2" d="M176.3,87.4c2.8,4.9,1.2,11.1-3.7,14c-4.9,2.8-11.1,1.2-14-3.7c-2.8-4.9-1.2-11.1,3.7-14
			S173.5,82.6,176.3,87.4z"/>
	</g>
	<g>
		<path class="st18" d="M203.2,106.5c7.2,8.4,6.2,21.1-2.3,28.3c-8.4,7.2-21.1,6.2-28.3-2.3c-7.2-8.4-6.2-21.1,2.3-28.3
			C183.3,97.1,196,98.1,203.2,106.5z"/>
	</g>
	<g class="st11">
		
			<ellipse transform="matrix(0.9939 -0.1101 0.1101 0.9939 -9.7549 22.2611)" class="st4" cx="196.8" cy="99.5" rx="16.1" ry="16.1"/>
	</g>
	<g class="st12">
		<path class="st6" d="M251.6,141.2c8.1,5,10.5,15.6,5.5,23.7c-5,8.1-15.6,10.5-23.7,5.5c-8.1-5-10.5-15.6-5.5-23.7
			C233,138.6,243.6,136.2,251.6,141.2z"/>
	</g>
	<g class="st13">
		
			<ellipse transform="matrix(0.9938 -0.1108 0.1108 0.9938 -14.5461 32.0784)" class="st6" cx="281.3" cy="146.9" rx="13.1" ry="13.1"/>
	</g>
	<g class="st14">
		
			<ellipse transform="matrix(0.1089 -0.9941 0.9941 0.1089 183.7169 414.7982)" class="st6" cx="323.2" cy="104.9" rx="22.9" ry="22.9"/>
	</g>
	<g class="st29">
		
			<ellipse transform="matrix(0.6119 -0.7909 0.7909 0.6119 32.3922 341.6332)" class="st6" cx="364.3" cy="137.8" rx="10.6" ry="10.6"/>
	</g>
	<g class="st41">
		<path class="st4" d="M404.8,140.8c1.6,6.9-2.8,13.9-9.7,15.4c-6.9,1.6-13.9-2.8-15.4-9.7c-1.6-6.9,2.8-13.9,9.7-15.4
			C396.4,129.5,403.3,133.8,404.8,140.8z"/>
	</g>
	<g class="st16">
		
			<ellipse transform="matrix(0.9985 -5.436206e-02 5.436206e-02 0.9985 -8.2058 20.4961)" class="st2" cx="372.6" cy="161.1" rx="10.2" ry="10.2"/>
	</g>
	<g class="st17">
		
			<ellipse transform="matrix(4.681790e-03 -1 1 4.681790e-03 197.333 563.558)" class="st2" cx="381.8" cy="182.6" rx="18.1" ry="18.1"/>
	</g>
	<g class="st13">
		<circle class="st18" cx="385.1" cy="239.7" r="8.7"/>
	</g>
	<g class="st19">
		<path class="st18" d="M355.8,262.7c2.7,4.9,1,11.1-3.9,13.8c-4.9,2.7-11.1,1-13.8-3.9c-2.7-4.9-1-11.1,3.9-13.8
			C346.9,256.1,353.1,257.8,355.8,262.7z"/>
	</g>
	<g class="st20">
		<path class="st6" d="M300.3,289.9c1.4,2.2,0.7,5.1-1.5,6.5s-5.1,0.7-6.5-1.5c-1.4-2.2-0.7-5.1,1.5-6.5
			C296,287,298.9,287.7,300.3,289.9z"/>
	</g>
	<g class="st21">
		<ellipse transform="matrix(0.535 -0.8449 0.8449 0.535 -112.5962 354.8674)" class="st4" cx="266.1" cy="279.7" rx="23" ry="23"/>
	</g>
	<g class="st22">
		<ellipse transform="matrix(0.2767 -0.961 0.961 0.2767 -90.3566 376.675)" class="st6" cx="205" cy="248.4" rx="23" ry="23"/>
	</g>
	<g class="st23">
		<path class="st2" d="M150,223.7c-1.5,3.6-5.7,5.3-9.3,3.7c-3.6-1.5-5.3-5.7-3.7-9.3c1.5-3.6,5.7-5.3,9.3-3.7
			C149.9,215.9,151.6,220.1,150,223.7z"/>
	</g>
	<g class="st24">
		
			<ellipse transform="matrix(0.208 -0.9781 0.9781 0.208 -90.9458 304.4454)" class="st4" cx="142.5" cy="208.4" rx="23.2" ry="23.2"/>
	</g>
	<g class="st25">
		
			<ellipse transform="matrix(0.8406 -0.5417 0.5417 0.8406 -70.3685 111.4501)" class="st4" cx="154.2" cy="175.3" rx="17.2" ry="17.2"/>
	</g>
	<g class="st9">
		
			<ellipse transform="matrix(0.2566 -0.9665 0.9665 0.2566 -42.7896 219.4253)" class="st18" cx="121.2" cy="137.5" rx="19.3" ry="19.3"/>
	</g>
	<g class="st25">
		<ellipse transform="matrix(0.9255 -0.3788 0.3788 0.9255 -31.0958 68.5276)" class="st2" cx="158.6" cy="113.3" rx="24" ry="24"/>
	</g>
	<g class="st7">
		
			<ellipse transform="matrix(0.3683 -0.9297 0.9297 0.3683 54.0604 282.6245)" class="st6" cx="235" cy="101.5" rx="22.8" ry="22.8"/>
	</g>
	<g class="st26">
		
			<ellipse transform="matrix(0.8919 -0.4523 0.4523 0.8919 5.651804e-02 111.4253)" class="st2" cx="233.1" cy="55.6" rx="12" ry="12"/>
	</g>
	<g class="st17">
		<circle class="st2" cx="274" cy="51.1" r="7.7"/>
	</g>
	<g>
		
			<ellipse transform="matrix(0.6113 -0.7914 0.7914 0.6113 27.8035 335.9545)" class="st2" cx="355.9" cy="139.7" rx="22.3" ry="22.3"/>
	</g>
	<g class="st28">
		<path class="st6" d="M421.3,86.7c-2.1,3.7-6.7,5-10.4,2.9c-3.7-2.1-5-6.7-2.9-10.4c2.1-3.7,6.7-5,10.4-2.9
			C422,78.4,423.4,83,421.3,86.7z"/>
	</g>
	<g class="st3">
		<path class="st18" d="M424.3,124.5c5.3,6.8,4.2,16.6-2.6,21.9s-16.6,4.2-21.9-2.6s-4.2-16.6,2.6-21.9
			C409.1,116.6,418.9,117.8,424.3,124.5z"/>
	</g>
	<g class="st19">
		<circle class="st18" cx="450.5" cy="128.4" r="6.5"/>
	</g>
	<g class="st19">
		<path class="st18" d="M476.6,230c1.9,1.7,2,4.5,0.3,6.4c-1.7,1.9-4.5,2-6.4,0.3c-1.9-1.7-2-4.5-0.3-6.4
			C471.9,228.5,474.7,228.3,476.6,230z"/>
	</g>
	<g class="st19">
		<path class="st18" d="M139.6,444c1.9,1.7,2,4.5,0.3,6.4c-1.7,1.9-4.5,2-6.4,0.3c-1.9-1.7-2-4.5-0.3-6.4
			C134.9,442.5,137.7,442.3,139.6,444z"/>
	</g>
	<g class="st32">
		<path class="st18" d="M397.9,38.6c2.6,2.4,2.9,6.5,0.5,9.1c-2.4,2.6-6.5,2.9-9.1,0.5c-2.6-2.4-2.9-6.5-0.5-9.1
			C391.1,36.4,395.2,36.2,397.9,38.6z"/>
	</g>
	<g class="st29">
		
			<ellipse transform="matrix(0.3474 -0.9377 0.9377 0.3474 -101.5489 318.5492)" class="st4" cx="178.1" cy="232.2" rx="16.6" ry="16.6"/>
	</g>
	<g class="st42">
		<path class="st2" d="M453.2,255.9c-2.8,6.2-10.1,9-16.3,6.2c-6.2-2.8-9-10.1-6.2-16.3s10.1-9,16.3-6.2S456,249.7,453.2,255.9z"/>
	</g>
	<g class="st12">
		<path class="st6" d="M435.1,309.1c3.4,1.3,5.1,5.2,3.7,8.6c-1.3,3.4-5.2,5.1-8.6,3.7c-3.4-1.3-5.1-5.2-3.7-8.6
			C427.8,309.4,431.7,307.8,435.1,309.1z"/>
	</g>
	<g class="st30">
		<path class="st2" d="M371.6,292.9c-3.4,4.8-10.1,6-14.9,2.6c-4.8-3.4-6-10.1-2.6-14.9c3.4-4.8,10.1-6,14.9-2.6
			S375,288.1,371.6,292.9z"/>
	</g>
	<g class="st31">
		
			<ellipse transform="matrix(0.9492 -0.3148 0.3148 0.9492 -99.4243 137.6767)" class="st6" cx="376.6" cy="376.7" rx="13.9" ry="13.9"/>
	</g>
	<g class="st32">
		<path class="st18" d="M338.3,335c3.8,1.6,5.6,6.1,4,9.9c-1.6,3.8-6.1,5.6-9.9,4c-3.8-1.6-5.6-6.1-4-9.9
			C330,335.1,334.5,333.3,338.3,335z"/>
	</g>
	<g class="st33">
		<path class="st4" d="M308.8,324c2.4,8.2-2.3,16.7-10.5,19.1c-8.2,2.4-16.7-2.3-19.1-10.5c-2.4-8.2,2.3-16.7,10.5-19.1
			C297.9,311.2,306.5,315.9,308.8,324z"/>
	</g>
	<g class="st34">
		<path class="st4" d="M252.7,373.7c3.8,0.7,6.4,4.4,5.7,8.3c-0.7,3.8-4.4,6.4-8.3,5.7c-3.8-0.7-6.4-4.4-5.7-8.3
			C245.1,375.6,248.8,373,252.7,373.7z"/>
	</g>
	<g class="st29">
		
			<ellipse transform="matrix(0.7071 -0.7071 0.7071 0.7071 -236.8311 247.8757)" class="st2" cx="180.8" cy="409.8" rx="24.1" ry="24.1"/>
	</g>
	<g>
		<path class="st4" d="M212.3,327.5c4.3,9.4,0.1,20.4-9.2,24.7c-9.4,4.3-20.4,0.1-24.7-9.2c-4.3-9.4-0.1-20.4,9.2-24.7
			C196.9,314,208,318.1,212.3,327.5z"/>
	</g>
	<g class="st9">
		<path class="st18" d="M197.5,303.8c7.2,1.6,11.7,8.8,10.1,16c-1.6,7.2-8.8,11.7-16,10.1c-7.2-1.6-11.7-8.8-10.1-16
			C183.1,306.7,190.3,302.1,197.5,303.8z"/>
	</g>
	<g>
		
			<ellipse transform="matrix(0.1602 -0.9871 0.9871 0.1602 -200.0726 406.2581)" class="st2" cx="138.7" cy="320.7" rx="7.7" ry="7.7"/>
	</g>
	<g class="st37">
		
			<ellipse transform="matrix(0.6266 -0.7793 0.7793 0.6266 -146.1405 183.6913)" class="st2" cx="118.6" cy="244.4" rx="24.2" ry="24.2"/>
	</g>
	<g class="st9">
		<path class="st6" d="M106.6,251.7c-0.5,2.8-3.3,4.7-6.1,4.1c-2.8-0.5-4.7-3.3-4.1-6.1c0.5-2.8,3.3-4.7,6.1-4.1
			S107.1,248.9,106.6,251.7z"/>
	</g>
	<g class="st7">
		
			<ellipse transform="matrix(0.9616 -0.2745 0.2745 0.9616 -63.0564 28.4579)" class="st4" cx="70.1" cy="239.5" rx="16.5" ry="16.5"/>
	</g>
	<g class="st19">
		<path class="st4" d="M51.8,170.5c1.5,3.9-0.5,8.3-4.4,9.8c-3.9,1.5-8.3-0.5-9.8-4.4c-1.5-3.9,0.5-8.3,4.4-9.8
			C45.9,164.6,50.3,166.6,51.8,170.5z"/>
	</g>
	<g class="st38">
		<path class="st6" d="M100.9,156.1c-6.9,9.3-20,11.3-29.4,4.5c-9.3-6.9-11.3-20-4.5-29.4c6.9-9.3,20-11.3,29.4-4.5
			C105.8,133.6,107.8,146.8,100.9,156.1z"/>
	</g>
	<g class="st39">
		
			<ellipse transform="matrix(0.4149 -0.9099 0.9099 0.4149 -34.9813 226.6468)" class="st18" cx="158.7" cy="140.5" rx="20.6" ry="20.6"/>
	</g>
	<g class="st40">
		<path class="st18" d="M108.1,32.5c3.4,1.4,5,5.2,3.6,8.6c-1.4,3.4-5.2,5-8.6,3.6s-5-5.2-3.6-8.6C100.9,32.7,104.7,31.1,108.1,32.5
			z"/>
	</g>
	<g class="st26">
		<path class="st4" d="M189.1,38.6c-0.4,5.7-5.3,10-11,9.7c-5.7-0.4-10-5.3-9.7-11c0.4-5.7,5.3-10,11-9.7S189.5,32.9,189.1,38.6z"/>
	</g>
	<g>
		<path class="st2" d="M242.3,122.4c2.9,10.1-3,20.7-13.1,23.5c-10.1,2.9-20.7-3-23.5-13.1c-2.9-10.1,3-20.7,13.1-23.5
			C228.9,106.4,239.5,112.3,242.3,122.4z"/>
	</g>
	<g class="st17">
		<path class="st4" d="M306,22.8c1.9,4.6-0.4,9.9-5,11.7c-4.6,1.9-9.9-0.4-11.7-5c-1.9-4.6,0.4-9.9,5-11.7
			C298.9,16,304.2,18.2,306,22.8z"/>
	</g>
	<g class="st17">
		<path class="st18" d="M41.3,334.2c1.9,4.6-0.4,9.9-5,11.7c-4.6,1.9-9.9-0.4-11.7-5c-1.9-4.6,0.4-9.9,5-11.7
			C34.2,327.4,39.5,329.6,41.3,334.2z"/>
	</g>
	<g>
		<path class="st18" d="M353.4,351.8c-0.7-7,4.4-13.3,11.4-14.1c7-0.7,13.3,4.4,14.1,11.4c0.7,7-4.4,13.3-11.4,14.1
			C360.4,364,354.1,358.9,353.4,351.8z"/>
	</g>
	<g>
		<path class="st18" d="M71.4,406.8c-0.7-7,4.4-13.3,11.4-14.1c7-0.7,13.3,4.4,14.1,11.4c0.7,7-4.4,13.3-11.4,14.1
			C78.4,419,72.1,413.9,71.4,406.8z"/>
	</g>
	<g>
		<path class="st4" d="M123.3,404.5c-0.6-5.4,3.4-10.3,8.8-10.8c5.4-0.6,10.3,3.4,10.8,8.8s-3.4,10.3-8.8,10.8
			C128.7,413.9,123.9,410,123.3,404.5z"/>
	</g>
	<g>
		<path class="st2" d="M335.4,56.8c-0.7-7,4.4-13.3,11.4-14.1c7-0.7,13.3,4.4,14.1,11.4c0.7,7-4.4,13.3-11.4,14.1
			C342.4,69,336.1,63.9,335.4,56.8z"/>
	</g>
	<g>
		<path class="st18" d="M341.4,140.8c-0.7-7,4.4-13.3,11.4-14.1c7-0.7,13.3,4.4,14.1,11.4c0.7,7-4.4,13.3-11.4,14.1
			C348.4,153,342.1,147.9,341.4,140.8z"/>
	</g>
	<g>
		<circle class="st18" cx="353.1" cy="251.5" r="16.9"/>
	</g>
	<g>
		<path class="st6" d="M449.3,224.4c-0.5-4.9,3-9.2,7.9-9.7c4.9-0.5,9.2,3,9.7,7.9c0.5,4.9-3,9.2-7.9,9.7
			C454.2,232.8,449.8,229.3,449.3,224.4z"/>
	</g>
	<g>
		
			<ellipse transform="matrix(0.939 -0.3438 0.3438 0.939 -74.1146 155.0262)" class="st4" cx="400.1" cy="286.5" rx="7.1" ry="7.1"/>
	</g>
	<g>
		<path class="st6" d="M381.5,268.5c0.6-8,7.6-14,15.6-13.4c8,0.6,14,7.6,13.4,15.6c-0.6,8-7.6,14-15.6,13.4
			C386.9,283.4,380.9,276.5,381.5,268.5z"/>
	</g>
	<g>
		<path class="st6" d="M169.4,135.8c-0.7-7,4.4-13.3,11.4-14.1c7-0.7,13.3,4.4,14.1,11.4c0.7,7-4.4,13.3-11.4,14.1
			C176.4,148,170.1,142.9,169.4,135.8z"/>
	</g>
	<g>
		<path class="st6" d="M257.3,77.1c-0.3-3.2,2-6.1,5.2-6.4c3.2-0.3,6.1,2,6.4,5.2c0.3,3.2-2,6.1-5.2,6.4
			C260.5,82.7,257.6,80.3,257.3,77.1z"/>
	</g>
	<g>
		<path class="st2" d="M54.1,239.6c-0.6-5.6,3.5-10.5,9-11.1c5.6-0.6,10.5,3.5,11.1,9c0.6,5.6-3.5,10.5-9,11.1
			C59.6,249.2,54.6,245.1,54.1,239.6z"/>
	</g>
	<g>
		<path class="st18" d="M134,321.1c-0.3-2.8,1.8-5.3,4.6-5.6c2.8-0.3,5.3,1.8,5.6,4.6c0.3,2.8-1.8,5.3-4.6,5.6
			C136.9,325.9,134.3,323.9,134,321.1z"/>
	</g>
	<g>
		<path class="st2" d="M133.4,246.8c-0.7-7,4.4-13.3,11.4-14.1c7-0.7,13.3,4.4,14.1,11.4c0.7,7-4.4,13.3-11.4,14.1
			C140.4,259,134.1,253.9,133.4,246.8z"/>
	</g>
	<g>
		<path class="st2" d="M275.4,356.8c-0.7-7,4.4-13.3,11.4-14.1c7-0.7,13.3,4.4,14.1,11.4c0.7,7-4.4,13.3-11.4,14.1
			C282.4,369,276.1,363.9,275.4,356.8z"/>
	</g>
	<g class="st7">
		<path class="st2" d="M151.3,364.1c-0.3-3.2,2-6.1,5.2-6.4c3.2-0.3,6.1,2,6.4,5.2c0.3,3.2-2,6.1-5.2,6.4
			C154.5,369.7,151.6,367.3,151.3,364.1z"/>
	</g>
	<g>
		
			<ellipse transform="matrix(0.7071 -0.7071 0.7071 0.7071 -191.9329 255.1987)" class="st18" cx="212.1" cy="359.3" rx="27.3" ry="27.3"/>
	</g>
	<g class="st42">
		
			<ellipse transform="matrix(0.7755 -0.6313 0.6313 0.7755 -109.4215 91.3981)" class="st6" cx="73.8" cy="199.6" rx="12.3" ry="12.3"/>
	</g>
	<g class="st43">
		
			<ellipse transform="matrix(0.332 -0.9433 0.9433 0.332 -217.9048 491.1155)" class="st4" cx="237.8" cy="399.4" rx="7.7" ry="7.7"/>
	</g>
	<g class="st43">
		<path class="st6" d="M241.9,422.4c-2.5-4.4-1.1-10,3.3-12.5c4.4-2.5,10-1.1,12.5,3.3c2.5,4.4,1.1,10-3.3,12.5
			C250.1,428.3,244.5,426.8,241.9,422.4z"/>
	</g>
	<g>
		
			<ellipse transform="matrix(0.4637 -0.886 0.886 0.4637 85.3575 330.6217)" class="st2" cx="315.8" cy="94.8" rx="15.9" ry="15.9"/>
	</g>
</g>
<g>
	<defs>
		<filter id="Adobe_OpacityMaskFilter" filterUnits="userSpaceOnUse" x="134" y="132" width="238" height="238">
			<feFlood  style="flood-color:white;flood-opacity:1" result="back"/>
			<feBlend  in="SourceGraphic" in2="back" mode="normal"/>
		</filter>
	</defs>
	<mask maskUnits="userSpaceOnUse" x="134" y="132" width="238" height="238" id="SVGID_1_">
		<g class="st45">
			<defs>
				<filter id="Adobe_OpacityMaskFilter_1_" filterUnits="userSpaceOnUse" x="134" y="132" width="238" height="238">
					<feFlood  style="flood-color:white;flood-opacity:1" result="back"/>
					<feBlend  in="SourceGraphic" in2="back" mode="normal"/>
				</filter>
			</defs>
			<mask maskUnits="userSpaceOnUse" x="134" y="132" width="238" height="238" id="SVGID_1_">
				<g class="st46">
				</g>
			</mask>
			<radialGradient id="SVGID_2_" cx="253" cy="251" r="119" gradientUnits="userSpaceOnUse">
				<stop  offset="0" style="stop-color:#FFFFFF"/>
				<stop  offset="0.2788" style="stop-color:#FDFDFD"/>
				<stop  offset="0.4164" style="stop-color:#F5F5F5"/>
				<stop  offset="0.5232" style="stop-color:#E8E8E8"/>
				<stop  offset="0.614" style="stop-color:#D5D5D5"/>
				<stop  offset="0.6948" style="stop-color:#BDBDBD"/>
				<stop  offset="0.7684" style="stop-color:#9F9F9F"/>
				<stop  offset="0.8366" style="stop-color:#7C7C7C"/>
				<stop  offset="0.9005" style="stop-color:#525252"/>
				<stop  offset="0.9587" style="stop-color:#252525"/>
				<stop  offset="1" style="stop-color:#000000"/>
			</radialGradient>
			<circle class="st47" cx="253" cy="251" r="119"/>
		</g>
	</mask>
	<radialGradient id="SVGID_3_" cx="253" cy="251" r="119" gradientUnits="userSpaceOnUse">
		<stop  offset="0" style="stop-color:#4D4D4D"/>
		<stop  offset="0.496" style="stop-color:#4B4B4B"/>
		<stop  offset="0.7408" style="stop-color:#434343"/>
		<stop  offset="0.93" style="stop-color:#363636"/>
		<stop  offset="1" style="stop-color:#2F2F2F"/>
	</radialGradient>
	<circle class="st48" cx="253" cy="251" r="119"/>
	<g>
		<circle class="st0" cx="253" cy="251" r="104"/>
		<g>
			<circle class="st0" cx="253" cy="251" r="98.5"/>
			<path class="st18" d="M253,350.5c-54.9,0-99.5-44.6-99.5-99.5s44.6-99.5,99.5-99.5s99.5,44.6,99.5,99.5S307.9,350.5,253,350.5z
				 M253,153.5c-53.8,0-97.5,43.7-97.5,97.5s43.7,97.5,97.5,97.5s97.5-43.7,97.5-97.5S306.8,153.5,253,153.5z"/>
		</g>
	</g>
</g>
<g>
	<path class="st49" d="M280.5,204.7h-60.6c-1.4,0-2.5-1.1-2.5-2.5v-6.1c0-1.4,1.1-2.5,2.5-2.5h60.6c1.4,0,2.5,1.1,2.5,2.5v6.1
		C283,203.6,281.9,204.7,280.5,204.7z"/>
	<path class="st49" d="M280.5,182.4h-60.6c-1.4,0-2.5-1.1-2.5-2.5v-6.1c0-1.4,1.1-2.5,2.5-2.5h60.6c1.4,0,2.5,1.1,2.5,2.5v6.1
		C283,181.3,281.9,182.4,280.5,182.4z"/>
	<path class="st49" d="M222,231c-1.9,0-3.3-0.6-4.4-1.4c-0.2-0.1-0.2-0.3-0.2-0.5c0-0.3,0.3-0.7,0.7-0.7c0.2,0,0.3,0,0.5,0.1
		c0.9,0.7,2.1,1.3,3.5,1.3c2.2,0,3-1.1,3-2c0-3-7.5-1.3-7.5-5.4c0-1.9,1.9-3.2,4.3-3.2c1.6,0,3,0.4,4,1.2c0.2,0.1,0.3,0.3,0.3,0.5
		c0,0.3-0.3,0.7-0.7,0.7c-0.2,0-0.3-0.1-0.5-0.2c-0.9-0.7-2.1-1-3.2-1c-1.5,0-2.6,0.7-2.6,1.8c0,2.6,7.5,1.1,7.5,5.4
		C226.7,229.3,225.4,231,222,231z"/>
	<path class="st49" d="M234.1,231c-3.4,0-5.1-1.8-5.1-4.7v-6.4c0-0.4,0.3-0.7,0.8-0.7c0.4,0,0.8,0.3,0.8,0.7v6.4
		c0,2.1,1.2,3.4,3.6,3.4c2.3,0,3.6-1.3,3.6-3.4v-6.4c0-0.4,0.3-0.7,0.8-0.7c0.4,0,0.8,0.3,0.8,0.7v6.4
		C239.2,229.2,237.5,231,234.1,231z"/>
	<path class="st49" d="M253.4,230.9c-0.4,0-0.8-0.3-0.8-0.7v-8.8l-4.2,9.3c-0.1,0.1-0.2,0.2-0.4,0.2c-0.2,0-0.3-0.1-0.4-0.2
		l-4.2-9.3v8.8c0,0.4-0.3,0.7-0.8,0.7c-0.4,0-0.8-0.3-0.8-0.7v-9.8c0-0.6,0.6-1.2,1.3-1.2c0.5,0,1,0.3,1.2,0.7l3.6,8l3.6-8
		c0.2-0.4,0.7-0.7,1.2-0.7c0.7,0,1.3,0.5,1.3,1.2v9.8C254.2,230.6,253.9,230.9,253.4,230.9z"/>
	<path class="st49" d="M268.8,230.9c-0.4,0-0.8-0.3-0.8-0.7v-8.8l-4.2,9.3c-0.1,0.1-0.2,0.2-0.4,0.2c-0.2,0-0.3-0.1-0.4-0.2
		l-4.2-9.3v8.8c0,0.4-0.3,0.7-0.8,0.7c-0.4,0-0.8-0.3-0.8-0.7v-9.8c0-0.6,0.6-1.2,1.3-1.2c0.5,0,1,0.3,1.2,0.7l3.6,8l3.6-8
		c0.2-0.4,0.7-0.7,1.2-0.7c0.7,0,1.3,0.5,1.3,1.2v9.8C269.6,230.6,269.2,230.9,268.8,230.9z"/>
	<path class="st49" d="M282.1,230.9c-0.3,0-0.6-0.2-0.8-0.5l-0.9-2.2h-6.3l-0.9,2.2c-0.1,0.3-0.4,0.5-0.8,0.5
		c-0.5,0-0.9-0.4-0.9-0.8c0-0.1,0-0.2,0.1-0.3l4.3-9.9c0.2-0.5,0.7-0.8,1.3-0.8c0.5,0,1,0.3,1.2,0.8l4.4,9.9c0,0.1,0.1,0.2,0.1,0.3
		C283,230.5,282.7,230.9,282.1,230.9z M277.3,220.8l-2.7,6.2h5.4L277.3,220.8z"/>
</g>
<text transform="matrix(1 0 0 1 251.1353 238.8398)"><tspan x="0" y="0" class="st50 st51 st52"> </tspan><tspan x="-94" y="27" class="st53 st51 st54">From Source Code</tspan><tspan x="-11.2" y="54" class="st53 st51 st54">to </tspan><tspan x="-54.4" y="81" class="st53 st51 st54">production</tspan></text>
</svg>
