<svg xmlns="http://www.w3.org/2000/svg" xmlns:xlink="http://www.w3.org/1999/xlink" viewBox="0 0 500 500"><defs><style>.cls-1{mask:url(#mask);filter:url(#luminosity-noclip-2);}.cls-2,.cls-52{mix-blend-mode:multiply;}.cls-2{fill:url(#radial-gradient);}.cls-3{isolation:isolate;}.cls-4{fill:#fff;}.cls-5{opacity:0.79;}.cls-6{fill:#5e5e5e;}.cls-7{opacity:0.82;}.cls-8{fill:#965141;}.cls-9{opacity:0.76;}.cls-10{fill:#a6e2e3;}.cls-11{opacity:0.99;}.cls-12{opacity:0.64;}.cls-13{opacity:0.57;}.cls-14{opacity:0.89;}.cls-15{opacity:0.61;}.cls-16{opacity:0.72;}.cls-17{opacity:0.87;}.cls-18{opacity:0.5;}.cls-19{opacity:0.44;}.cls-20{opacity:0.91;}.cls-21{opacity:0.66;}.cls-22{fill:#e58064;}.cls-23{opacity:0.55;}.cls-24{opacity:0.97;}.cls-25{opacity:0.85;}.cls-26{opacity:0.74;}.cls-27{opacity:0.69;}.cls-28{opacity:0.58;}.cls-29{opacity:0.98;}.cls-30{opacity:0.68;}.cls-31{opacity:0.54;}.cls-32{opacity:0.52;}.cls-33{opacity:0.71;}.cls-34{opacity:0.96;}.cls-35{opacity:0.65;}.cls-36{opacity:0.86;}.cls-37{opacity:0.94;}.cls-38{opacity:0.62;}.cls-39{opacity:0.56;}.cls-40{opacity:0.67;}.cls-41{opacity:0.6;}.cls-42{opacity:0.75;}.cls-43{opacity:0.81;}.cls-44{opacity:0.88;}.cls-45{opacity:0.63;}.cls-46{opacity:0.9;}.cls-47{opacity:0.92;}.cls-48{opacity:0.93;}.cls-49{fill:#3a3a3a;}.cls-50{mix-blend-mode:overlay;}.cls-51{mask:url(#mask-2);}.cls-52{fill:url(#radial-gradient-2);}.cls-53{font-size:12px;font-family:ArialRoundedMTBold, Arial Rounded MT Bold;}.cls-54{font-size:21px;stroke:#a6e2e3;stroke-miterlimit:10;}.cls-55{letter-spacing:-0.04em;}.cls-56{letter-spacing:-0.03em;}.cls-57{fill:#121b21;}.cls-58{filter:url(#luminosity-noclip);}</style><filter id="luminosity-noclip" x="134" y="-8442" width="238" height="32766" filterUnits="userSpaceOnUse" color-interpolation-filters="sRGB"><feFlood flood-color="#fff" result="bg"/><feBlend in="SourceGraphic" in2="bg"/></filter><mask id="mask" x="134" y="-8442" width="238" height="32766" maskUnits="userSpaceOnUse"><g class="cls-58"/></mask><radialGradient id="radial-gradient" cx="253" cy="251" r="119" gradientUnits="userSpaceOnUse"><stop offset="0" stop-color="#fff"/><stop offset="0.28" stop-color="#fdfdfd"/><stop offset="0.42" stop-color="#f5f5f5"/><stop offset="0.52" stop-color="#e8e8e8"/><stop offset="0.61" stop-color="#d5d5d5"/><stop offset="0.69" stop-color="#bdbdbd"/><stop offset="0.77" stop-color="#9f9f9f"/><stop offset="0.84" stop-color="#7c7c7c"/><stop offset="0.9" stop-color="#525252"/><stop offset="0.96" stop-color="#252525"/><stop offset="1"/></radialGradient><filter id="luminosity-noclip-2" x="134" y="132" width="238" height="238" filterUnits="userSpaceOnUse" color-interpolation-filters="sRGB"><feFlood flood-color="#fff" result="bg"/><feBlend in="SourceGraphic" in2="bg"/></filter><mask id="mask-2" x="134" y="132" width="238" height="238" maskUnits="userSpaceOnUse"><g class="cls-1"><circle class="cls-2" cx="253" cy="251" r="119"/></g></mask><radialGradient id="radial-gradient-2" cx="253" cy="251" r="119" gradientUnits="userSpaceOnUse"><stop offset="0" stop-color="#d0d0d0"/><stop offset="0.44" stop-color="#d2d2d2"/><stop offset="0.66" stop-color="#dadada"/><stop offset="0.82" stop-color="#e7e7e7"/><stop offset="0.97" stop-color="#f9f9f9"/><stop offset="1" stop-color="#fff"/></radialGradient></defs><title>dreamstime_109511316 [Converted]</title><g class="cls-3"><g id="Layer_1" data-name="Layer 1"><rect class="cls-4" width="500" height="500"/><g class="cls-5"><circle class="cls-6" cx="221.58" cy="283.3" r="24.37" transform="matrix(0.85, -0.53, 0.53, 0.85, -116.34, 160.16)"/></g><g class="cls-7"><circle class="cls-8" cx="218.13" cy="228.14" r="21.49" transform="translate(-37.72 43.29) rotate(-10.44)"/></g><g class="cls-9"><circle class="cls-10" cx="248.22" cy="242.72" r="24.59" transform="translate(-82.84 138.21) rotate(-26.84)"/></g><g class="cls-11"><path class="cls-10" d="M323.58,224.59A8.33,8.33,0,1,1,335.24,223,8.34,8.34,0,0,1,323.58,224.59Z"/></g><g class="cls-12"><circle class="cls-8" cx="328.01" cy="287.65" r="13" transform="translate(-0.34 0.39) rotate(-0.07)"/></g><g class="cls-13"><path class="cls-6" d="M339.46,363a10.22,10.22,0,1,1,14,3.7A10.23,10.23,0,0,1,339.46,363Z"/></g><g class="cls-14"><circle class="cls-10" cx="301.84" cy="320.92" r="20.06" transform="translate(-54.45 580.06) rotate(-82.79)"/></g><g class="cls-15"><circle class="cls-8" cx="317" cy="343.98" r="16.13" transform="translate(-133.44 470.15) rotate(-62.99)"/></g><g class="cls-16"><circle class="cls-8" cx="267.24" cy="301.68" r="17.2" transform="translate(-122.41 404.64) rotate(-63.27)"/></g><g class="cls-17"><path class="cls-10" d="M225.17,312.76a13.06,13.06,0,1,1,18.48.11A13.07,13.07,0,0,1,225.17,312.76Z"/></g><g class="cls-18"><path class="cls-8" d="M205.34,368.56a22.94,22.94,0,1,1,30.21-11.83A22.93,22.93,0,0,1,205.34,368.56Z"/></g><circle class="cls-8" cx="151.43" cy="312.66" r="10.62" transform="translate(-72.3 46.89) rotate(-14.25)"/><g class="cls-19"><circle class="cls-8" cx="132.5" cy="300.86" r="12.9" transform="translate(-180.3 401.97) rotate(-84.14)"/></g><g class="cls-20"><circle class="cls-6" cx="134.11" cy="282.39" r="10.2"/></g><g class="cls-21"><path class="cls-6" d="M115.15,274.54a18.07,18.07,0,1,1,25.56.12A18.08,18.08,0,0,1,115.15,274.54Z"/></g><g class="cls-17"><circle class="cls-22" cx="130.7" cy="210.8" r="8.7" transform="translate(-114.8 175.47) rotate(-50.01)"/></g><g class="cls-23"><circle class="cls-22" cx="143.79" cy="154.78" r="10.16"/></g><g class="cls-24"><circle class="cls-10" cx="219.46" cy="158.05" r="4.72" transform="translate(17.91 338.39) rotate(-77.58)"/></g><g class="cls-25"><circle class="cls-22" cx="266.08" cy="182.75" r="27.09" transform="translate(-56.07 203.19) rotate(-38.11)"/></g><g class="cls-26"><path class="cls-6" d="M291.24,198.65a15.44,15.44,0,1,1,21,5.94A15.44,15.44,0,0,1,291.24,198.65Z"/></g><g class="cls-27"><path class="cls-10" d="M365.72,226.8a7.08,7.08,0,1,1,3.73,9.3A7.07,7.07,0,0,1,365.72,226.8Z"/></g><g class="cls-28"><circle class="cls-22" cx="348.24" cy="218.09" r="23.24" transform="translate(-17.7 404.96) rotate(-59.11)"/></g><g class="cls-29"><path class="cls-22" d="M338.54,310.18a12.21,12.21,0,1,1,10,14.05A12.21,12.21,0,0,1,338.54,310.18Z"/></g><g class="cls-13"><circle class="cls-6" cx="357.51" cy="277.94" r="19.28" transform="translate(-33.32 506.68) rotate(-68.2)"/></g><g class="cls-29"><circle class="cls-8" cx="320.12" cy="287.17" r="24.02" transform="translate(-65.18 96.16) rotate(-15.53)"/></g><g class="cls-11"><circle class="cls-22" cx="293.76" cy="359.94" r="22.85" transform="translate(-153.88 235.55) rotate(-35.25)"/></g><g class="cls-30"><circle class="cls-8" cx="252.69" cy="370.88" r="20.42" transform="translate(-164.16 537.13) rotate(-77.48)"/></g><g class="cls-31"><circle class="cls-10" cx="159.85" cy="334.8" r="15.87" transform="translate(-53.91 31.57) rotate(-9.66)"/></g><g class="cls-32"><circle class="cls-8" cx="122.11" cy="369.49" r="7.94" transform="matrix(0.25, -0.97, 0.97, 0.25, -266.3, 393.46)"/></g><g class="cls-7"><circle class="cls-10" cx="103.75" cy="316.27" r="15.6" transform="translate(-171.34 128.87) rotate(-37.57)"/></g><g class="cls-23"><path class="cls-10" d="M42.45,310.3a6.5,6.5,0,1,1,9.18-.46A6.5,6.5,0,0,1,42.45,310.3Z"/></g><g class="cls-33"><circle class="cls-10" cx="61.67" cy="269.24" r="16.58" transform="translate(-213.13 297.07) rotate(-82.88)"/></g><g class="cls-16"><path class="cls-8" d="M80.68,141.38a6.62,6.62,0,1,1,8.58-3.75A6.63,6.63,0,0,1,80.68,141.38Z"/></g><g class="cls-34"><circle class="cls-22" cx="116.92" cy="105.7" r="10.73" transform="translate(-35.53 65.7) rotate(-27.41)"/></g><g class="cls-35"><circle class="cls-10" cx="139.2" cy="73.8" r="13.94" transform="translate(19.64 176.4) rotate(-68.57)"/></g><g class="cls-36"><path class="cls-22" d="M177.43,115.51a7.57,7.57,0,1,1,9.93-4A7.56,7.56,0,0,1,177.43,115.51Z"/></g><g class="cls-37"><circle class="cls-6" cx="205.69" cy="111.14" r="15.37" transform="translate(-3.8 214.95) rotate(-54.74)"/></g><g class="cls-38"><path class="cls-22" d="M263.07,76.73a7.07,7.07,0,1,1,8.25-5.66A7.06,7.06,0,0,1,263.07,76.73Z"/></g><g class="cls-33"><circle class="cls-6" cx="275.96" cy="64.65" r="24.1" transform="translate(-0.57 2.49) rotate(-0.52)"/></g><g class="cls-39"><path class="cls-22" d="M277.5,130a18.65,18.65,0,1,1,24.71,9.24A18.65,18.65,0,0,1,277.5,130Z"/></g><g class="cls-13"><circle class="cls-6" cx="321.23" cy="133.64" r="13.4" transform="translate(-25.49 104.7) rotate(-17.82)"/></g><g class="cls-40"><circle class="cls-22" cx="377.03" cy="129.76" r="7.73" transform="translate(-21.54 141.07) rotate(-20.62)"/></g><g class="cls-41"><circle class="cls-22" cx="349.13" cy="184.12" r="24.19" transform="translate(-24.98 309.95) rotate(-46.4)"/></g><g class="cls-13"><path class="cls-22" d="M409.17,198.78a5.21,5.21,0,1,1,4.13,6.1A5.21,5.21,0,0,1,409.17,198.78Z"/></g><g class="cls-11"><circle class="cls-8" cx="409.57" cy="244.32" r="16.49" transform="translate(74.38 583.56) rotate(-76.16)"/></g><g class="cls-23"><path class="cls-6" d="M465,290a7.58,7.58,0,1,1,9.78,4.39A7.58,7.58,0,0,1,465,290Z"/></g><g class="cls-42"><circle class="cls-6" cx="372.02" cy="336.66" r="21" transform="translate(-34.03 631.39) rotate(-78.12)"/></g><g class="cls-43"><circle class="cls-10" cx="398.02" cy="287.95" r="20.64" transform="translate(-93.01 273.11) rotate(-34.15)"/></g><g class="cls-44"><path class="cls-8" d="M421.55,407.85a4.25,4.25,0,1,1,5.55-2.32A4.26,4.26,0,0,1,421.55,407.85Z"/></g><g class="cls-30"><circle class="cls-8" cx="349.96" cy="425.46" r="10.34" transform="translate(-42.64 39) rotate(-6.01)"/></g><g class="cls-30"><circle class="cls-22" cx="314.96" cy="426.46" r="16.04" transform="translate(-124.32 129.64) rotate(-19.51)"/></g><g class="cls-41"><circle class="cls-8" cx="285.94" cy="384.91" r="19.05" transform="translate(-121.65 637.47) rotate(-85.18)"/></g><g class="cls-41"><circle class="cls-22" cx="252.54" cy="440.6" r="16.32" transform="translate(-85.76 61.85) rotate(-11.95)"/></g><g class="cls-21"><path class="cls-8" d="M209.74,427.66a9,9,0,1,1,11.72,5A9,9,0,0,1,209.74,427.66Z"/></g><g class="cls-5"><circle class="cls-8" cx="239.38" cy="263.49" r="28.97" transform="translate(-116.36 276.71) rotate(-49.87)"/></g><g class="cls-7"><circle class="cls-22" cx="203.72" cy="217.56" r="25.54"/></g><g class="cls-9"><circle class="cls-6" cx="252.62" cy="229.4" r="29.23" transform="matrix(0.04, -1, 1, 0.04, 13.3, 472.64)"/></g><g class="cls-11"><circle class="cls-10" cx="325.4" cy="194.81" r="10.86" transform="translate(-32.99 318.87) rotate(-50)"/></g><g class="cls-12"><path class="cls-22" d="M364.72,271.57a15.45,15.45,0,1,1,15.93,14.95A15.45,15.45,0,0,1,364.72,271.57Z"/></g><g class="cls-13"><path class="cls-8" d="M361.6,364.4a12.14,12.14,0,1,1,16.93,2.92A12.15,12.15,0,0,1,361.6,364.4Z"/></g><g class="cls-14"><circle class="cls-22" cx="344.45" cy="318.63" r="23.84" transform="translate(-61.04 82.52) rotate(-12.56)"/></g><g class="cls-15"><circle class="cls-10" cx="336.1" cy="352.31" r="19.17"/></g><g class="cls-16"><circle class="cls-22" cx="279.28" cy="314.07" r="20.45" transform="translate(-105.13 483.96) rotate(-72.2)"/></g><g class="cls-17"><circle class="cls-10" cx="231.03" cy="305.13" r="15.52" transform="translate(-141.21 216.16) rotate(-39.43)"/></g><g class="cls-33"><path class="cls-22" d="M128.28,336.06a12.63,12.63,0,1,1,16.83-6A12.62,12.62,0,0,1,128.28,336.06Z"/></g><g class="cls-45"><circle class="cls-10" cx="101.03" cy="343.74" r="15.33" transform="translate(-253.36 291.1) rotate(-65.17)"/></g><g class="cls-20"><path class="cls-22" d="M103.34,296.5a12.12,12.12,0,1,1,17-2A12.12,12.12,0,0,1,103.34,296.5Z"/></g><g class="cls-21"><circle class="cls-10" cx="100.58" cy="266.96" r="21.48" transform="translate(-22.72 9.7) rotate(-4.96)"/></g><g class="cls-17"><circle class="cls-8" cx="98.39" cy="206.28" r="10.34" transform="translate(-129.53 189.44) rotate(-60.27)"/></g><g class="cls-23"><path class="cls-8" d="M98,145.37a12.07,12.07,0,1,1,16.78,3.2A12.07,12.07,0,0,1,98,145.37Z"/></g><g class="cls-24"><path class="cls-8" d="M193.44,137.88a5.62,5.62,0,1,1,7.87,1A5.62,5.62,0,0,1,193.44,137.88Z"/></g><g class="cls-25"><circle class="cls-8" cx="261.94" cy="128.11" r="27.33" transform="translate(-25.53 176.95) rotate(-35.71)"/></g><g class="cls-26"><circle class="cls-8" cx="308.43" cy="166.41" r="11.83" transform="translate(140.55 474.05) rotate(-89.73)"/></g><g class="cls-27"><circle class="cls-22" cx="386.29" cy="202.98" r="8.42" transform="translate(175.35 584.98) rotate(-88.81)"/></g><g class="cls-28"><circle class="cls-8" cx="385.8" cy="215.68" r="27.61" transform="translate(-34.19 77.97) rotate(-11.05)"/></g><path class="cls-22" d="M380,267a14.51,14.51,0,1,1,13.36,15.56A14.51,14.51,0,0,1,380,267Z"/><g class="cls-13"><circle class="cls-8" cx="417.7" cy="330.87" r="22.91" transform="translate(-14.96 19.82) rotate(-2.67)"/></g><g class="cls-29"><circle class="cls-8" cx="373.06" cy="363.55" r="28.55" transform="translate(-90.42 125.78) rotate(-17.1)"/></g><g class="cls-11"><circle class="cls-22" cx="306.13" cy="398.81" r="27.15" transform="translate(-195.42 363.91) rotate(-48.51)"/></g><g class="cls-31"><circle class="cls-10" cx="179.24" cy="369.11" r="26.56" transform="translate(-230.48 346.71) rotate(-60.97)"/></g><g class="cls-32"><path class="cls-6" d="M99.71,403.63a9.43,9.43,0,1,1,4.76,12.46A9.43,9.43,0,0,1,99.71,403.63Z"/></g><g class="cls-7"><circle class="cls-8" cx="85.64" cy="347.98" r="18.53" transform="translate(-262.56 432.71) rotate(-89.85)"/></g><g class="cls-7"><circle class="cls-22" cx="264.64" cy="251.98" r="24.31" transform="translate(-45.66 444.95) rotate(-75.47)"/></g><g class="cls-23"><path class="cls-6" d="M21.45,291.39a7.72,7.72,0,1,1,10.81-1.52A7.72,7.72,0,0,1,21.45,291.39Z"/></g><g class="cls-46"><path class="cls-22" d="M18,217.24a14.67,14.67,0,1,1,9.11,18.63A14.67,14.67,0,0,1,18,217.24Z"/></g><g class="cls-16"><path class="cls-22" d="M31.85,129.39A7.87,7.87,0,1,1,41.61,124,7.87,7.87,0,0,1,31.85,129.39Z"/></g><g class="cls-16"><circle class="cls-10" cx="455.06" cy="76.84" r="11.03" transform="translate(-0.98 6.05) rotate(-0.76)"/></g><g class="cls-34"><circle class="cls-10" cx="62.97" cy="93.31" r="12.75" transform="translate(-31.47 154.58) rotate(-88.96)"/></g><g class="cls-34"><circle class="cls-22" cx="156.97" cy="363.31" r="16.65" transform="translate(-49.58 25.71) rotate(-8.09)"/></g><g class="cls-35"><circle class="cls-8" cx="101.97" cy="51.2" r="16.57" transform="translate(-11.24 65.47) rotate(-33.85)"/></g><g class="cls-36"><path class="cls-10" d="M143.64,88.54A9,9,0,1,1,155,82.77,9,9,0,0,1,143.64,88.54Z"/></g><g class="cls-37"><circle class="cls-22" cx="176.63" cy="80.37" r="18.27" transform="translate(32.54 210.36) rotate(-66.52)"/></g><g class="cls-38"><path class="cls-10" d="M248.92,34.59A8.41,8.41,0,1,1,258.09,27,8.41,8.41,0,0,1,248.92,34.59Z"/></g><g class="cls-33"><circle class="cls-22" cx="334.24" cy="62.91" r="28.65" transform="translate(131.57 336.04) rotate(-64.08)"/></g><g class="cls-39"><circle class="cls-22" cx="292.9" cy="83.12" r="22.17" transform="translate(131.62 341.36) rotate(-73.86)"/></g><g class="cls-40"><path class="cls-22" d="M370.86,92.66a9.19,9.19,0,1,1,11.92,5.2A9.19,9.19,0,0,1,370.86,92.66Z"/></g><g class="cls-41"><path class="cls-6" d="M390.72,154.77a28.74,28.74,0,1,1,4.77,40.37A28.74,28.74,0,0,1,390.72,154.77Z"/></g><g class="cls-13"><path class="cls-8" d="M426.75,162.62a6.19,6.19,0,1,1,5.54,6.78A6.2,6.2,0,0,1,426.75,162.62Z"/></g><g class="cls-11"><circle class="cls-6" cx="463.19" cy="176.18" r="19.59" transform="translate(-32.37 175.35) rotate(-20.73)"/></g><g class="cls-23"><circle class="cls-6" cx="445.59" cy="216.72" r="9.57" transform="translate(-44 292.99) rotate(-34.79)"/></g><g class="cls-42"><circle class="cls-8" cx="432.3" cy="280.03" r="24.96" transform="translate(-40.05 485.42) rotate(-56.43)"/></g><g class="cls-44"><path class="cls-22" d="M451.8,392.86a5,5,0,1,1,6.32-3.32A5,5,0,0,1,451.8,392.86Z"/></g><g class="cls-30"><path class="cls-6" d="M346.37,103.08A12.29,12.29,0,1,1,359,115,12.29,12.29,0,0,1,346.37,103.08Z"/></g><circle class="cls-6" cx="89.18" cy="398.4" r="22.63" transform="translate(-318.52 377.16) rotate(-74.4)"/><g class="cls-41"><circle class="cls-10" cx="273.92" cy="463.42" r="19.39" transform="translate(-209.17 225.9) rotate(-33.23)"/></g><g class="cls-21"><circle class="cls-10" cx="204.4" cy="450.75" r="10.7" transform="translate(-86.6 50.41) rotate(-11.62)"/></g><g class="cls-5"><circle class="cls-6" cx="295.03" cy="247.48" r="24.37" transform="translate(-40.63 436.23) rotate(-69.34)"/></g><g class="cls-7"><circle class="cls-6" cx="286.52" cy="286.17" r="21.49" transform="translate(-16.35 17.36) rotate(-3.38)"/></g><g class="cls-9"><circle class="cls-6" cx="325.89" cy="250.17" r="24.59" transform="translate(-50.32 85.07) rotate(-13.82)"/></g><g class="cls-11"><path class="cls-10" d="M207.32,289.05a8.33,8.33,0,1,1-11.47,2.66A8.32,8.32,0,0,1,207.32,289.05Z"/></g><g class="cls-12"><path class="cls-8" d="M176.56,230.68a13,13,0,1,1-13.4-12.58A13,13,0,0,1,176.56,230.68Z"/></g><g class="cls-13"><circle class="cls-8" cx="173.22" cy="164.41" r="10.22" transform="matrix(1, -0.02, 0.02, 1, -3.53, 3.8)"/></g><g class="cls-14"><circle class="cls-6" cx="193.62" cy="183.51" r="20.06" transform="translate(-1.8 1.92) rotate(-0.56)"/></g><g class="cls-15"><circle class="cls-8" cx="200.64" cy="162.74" r="16.13" transform="translate(-25.97 286.8) rotate(-67.75)"/></g><g class="cls-16"><circle class="cls-6" cx="248.45" cy="194.92" r="17.2" transform="translate(-48.46 87.38) rotate(-18.21)"/></g><g class="cls-17"><circle class="cls-10" cx="289.06" cy="202.44" r="19.04"/></g><g class="cls-18"><circle class="cls-10" cx="305" cy="156.87" r="22.94" transform="translate(-37.97 154.05) rotate(-26.75)"/></g><g class="cls-33"><path class="cls-8" d="M375.51,176.42a10.62,10.62,0,1,1-14.15,5A10.62,10.62,0,0,1,375.51,176.42Z"/></g><g class="cls-45"><circle class="cls-6" cx="399.28" cy="189.3" r="12.9" transform="translate(159.71 560.61) rotate(-82.54)"/></g><g class="cls-20"><circle class="cls-10" cx="390.17" cy="217.7" r="10.2" transform="translate(22.31 471.27) rotate(-63.74)"/></g><g class="cls-21"><circle class="cls-10" cx="364.82" cy="249.56" r="18.07" transform="translate(-8.2 12.44) rotate(-1.93)"/></g><g class="cls-17"><path class="cls-10" d="M409.24,284.18a8.7,8.7,0,1,1-10-7.14A8.7,8.7,0,0,1,409.24,284.18Z"/></g><g class="cls-23"><path class="cls-8" d="M385,300.87a10.16,10.16,0,1,1-14.12-2.69A10.16,10.16,0,0,1,385,300.87Z"/></g><path class="cls-22" d="M320.68,338.18a4.72,4.72,0,1,1-6.62-.87A4.72,4.72,0,0,1,320.68,338.18Z"/><circle class="cls-6" cx="254.1" cy="336.72" r="22.99" transform="translate(-117.02 136.17) rotate(-24.57)"/><g class="cls-26"><circle class="cls-22" cx="223.93" cy="319.16" r="9.96" transform="translate(-45.26 37.12) rotate(-8.61)"/></g><g class="cls-27"><circle class="cls-8" cx="158.41" cy="288.39" r="7.08" transform="translate(-116.27 107.25) rotate(-27.82)"/></g><g class="cls-28"><circle class="cls-22" cx="156.3" cy="276.03" r="23.24" transform="translate(-146.04 180.07) rotate(-42.87)"/></g><g class="cls-29"><path class="cls-22" d="M167.74,227.72a12.2,12.2,0,1,1-11.24-13.09A12.2,12.2,0,0,1,167.74,227.72Z"/></g><g class="cls-13"><circle class="cls-22" cx="130.3" cy="179.1" r="19.28" transform="translate(-61.44 289.96) rotate(-84)"/></g><g class="cls-29"><circle class="cls-8" cx="196.55" cy="143.28" r="24.02" transform="matrix(0.93, -0.37, 0.37, 0.93, -38.81, 81.9)"/></g><g class="cls-11"><circle class="cls-10" cx="147.38" cy="242.16" r="22.85" transform="translate(-124.35 322.94) rotate(-75.23)"/></g><g class="cls-37"><circle class="cls-22" cx="264.92" cy="137.03" r="20.42" transform="translate(-31.82 106.95) rotate(-21.56)"/></g><g class="cls-47"><path class="cls-6" d="M281.87,100.76A7.7,7.7,0,1,1,271.34,98,7.7,7.7,0,0,1,281.87,100.76Z"/></g><circle class="cls-22" cx="318.59" cy="160.56" r="22.35" transform="translate(75.18 421.39) rotate(-73.73)"/><g class="cls-32"><path class="cls-8" d="M399.56,121.24a7.94,7.94,0,1,1-4-10.48A7.94,7.94,0,0,1,399.56,121.24Z"/></g><circle class="cls-10" cx="418.12" cy="178.17" r="15.6" transform="translate(-30 102.31) rotate(-13.47)"/><g class="cls-23"><path class="cls-8" d="M466.46,191.19a6.49,6.49,0,1,1-9.1,1.27A6.49,6.49,0,0,1,466.46,191.19Z"/></g><g class="cls-33"><path class="cls-22" d="M188.91,243.47a16.58,16.58,0,1,1-22,8.05A16.58,16.58,0,0,1,188.91,243.47Z"/></g><g class="cls-46"><circle class="cls-10" cx="406.31" cy="332.74" r="12.34" transform="translate(-80.12 134.78) rotate(-17.17)"/></g><g class="cls-16"><path class="cls-22" d="M464.26,334.25a8.77,8.77,0,1,1-10.89,6A8.77,8.77,0,0,1,464.26,334.25Z"/></g><g class="cls-34"><circle class="cls-10" cx="421.73" cy="384.09" r="10.73" transform="translate(-145.58 324.59) rotate(-36.34)"/></g><g class="cls-35"><circle class="cls-6" cx="399.38" cy="421.84" r="13.94" transform="translate(-49.7 53.36) rotate(-7.2)"/></g><g class="cls-36"><circle class="cls-10" cx="360.25" cy="391.89" r="7.57" transform="translate(-29.14 28.94) rotate(-4.42)"/></g><g class="cls-37"><circle class="cls-6" cx="327.56" cy="371.29" r="15.37" transform="translate(-134.3 192.88) rotate(-27.46)"/></g><g class="cls-38"><path class="cls-6" d="M284.74,431.93a7.08,7.08,0,1,1-7.72,6.38A7.07,7.07,0,0,1,284.74,431.93Z"/></g><g class="cls-48"><circle class="cls-6" cx="259.58" cy="405.97" r="16.03" transform="matrix(0.64, -0.77, 0.77, 0.64, -218.72, 347.47)"/></g><g class="cls-39"><circle class="cls-10" cx="223.41" cy="388.41" r="18.65" transform="translate(-224.58 379.3) rotate(-58.93)"/></g><g class="cls-13"><circle class="cls-10" cx="217.74" cy="379.42" r="13.4" transform="translate(-168.24 173.53) rotate(-32.07)"/></g><g class="cls-40"><path class="cls-6" d="M169.71,385.43a7.73,7.73,0,1,1-10-4.38A7.73,7.73,0,0,1,169.71,385.43Z"/></g><g class="cls-41"><circle class="cls-6" cx="175.7" cy="302.98" r="24.19" transform="translate(-43.79 30.05) rotate(-8.7)"/></g><g class="cls-13"><path class="cls-6" d="M124.37,322.36a5.21,5.21,0,1,1-4.66-5.71A5.22,5.22,0,0,1,124.37,322.36Z"/></g><g class="cls-11"><circle class="cls-8" cx="69.72" cy="308.26" r="16.49" transform="translate(-227.96 202.1) rotate(-57.63)"/></g><g class="cls-23"><circle class="cls-6" cx="53.82" cy="239.81" r="7.58" transform="translate(-190.39 212.12) rotate(-70.88)"/></g><g class="cls-42"><circle class="cls-22" cx="101.98" cy="212.64" r="21" transform="translate(-87.08 71.68) rotate(-27.67)"/></g><g class="cls-43"><circle class="cls-6" cx="90.95" cy="182.61" r="20.64" transform="translate(-95.82 100.54) rotate(-39.8)"/></g><g class="cls-44"><path class="cls-6" d="M92.35,114.32a4.25,4.25,0,1,1-5.32,2.8A4.25,4.25,0,0,1,92.35,114.32Z"/></g><g class="cls-30"><circle class="cls-22" cx="155.58" cy="84.96" r="10.34"/></g><g class="cls-41"><path class="cls-22" d="M227.61,75.9A19,19,0,1,1,203,65,19.05,19.05,0,0,1,227.61,75.9Z"/></g><g class="cls-41"><circle class="cls-6" cx="255.86" cy="83.57" r="16.32" transform="translate(66.4 274.76) rotate(-63.35)"/></g><g class="cls-21"><circle class="cls-22" cx="294.63" cy="80.76" r="9" transform="translate(126.74 335.98) rotate(-71.99)"/></g><g class="cls-5"><circle class="cls-8" cx="219.18" cy="187.17" r="24.37" transform="translate(-15.75 20.19) rotate(-5.09)"/></g><g class="cls-7"><circle class="cls-22" cx="297.63" cy="222.33" r="21.49" transform="translate(49.63 498.94) rotate(-84.88)"/></g><g class="cls-9"><circle class="cls-10" cx="177.54" cy="195.75" r="24.59" transform="translate(-72.97 279.91) rotate(-66.36)"/></g><g class="cls-11"><path class="cls-8" d="M192.18,225.89a8.33,8.33,0,1,1-11.66,1.63A8.32,8.32,0,0,1,192.18,225.89Z"/></g><g class="cls-12"><circle class="cls-10" cx="153.76" cy="164.27" r="13" transform="translate(-70.13 141.84) rotate(-41.17)"/></g><g class="cls-13"><path class="cls-6" d="M176.3,87.44a10.22,10.22,0,1,1-14-3.7A10.22,10.22,0,0,1,176.3,87.44Z"/></g><path class="cls-49" d="M203.19,106.54a20.06,20.06,0,1,1-28.28-2.26A20.07,20.07,0,0,1,203.19,106.54Z"/><g class="cls-15"><circle class="cls-8" cx="196.76" cy="99.49" r="16.13" transform="translate(-9.75 22.26) rotate(-6.32)"/></g><g class="cls-16"><path class="cls-10" d="M251.64,141.2a17.2,17.2,0,1,1-23.71,5.48A17.2,17.2,0,0,1,251.64,141.2Z"/></g><g class="cls-17"><circle class="cls-10" cx="281.3" cy="146.89" r="13.06" transform="translate(-14.55 32.08) rotate(-6.36)"/></g><g class="cls-18"><circle class="cls-10" cx="323.22" cy="104.93" r="22.94" transform="translate(183.72 414.8) rotate(-83.75)"/></g><g class="cls-33"><circle class="cls-10" cx="364.32" cy="137.81" r="10.62" transform="translate(32.39 341.63) rotate(-52.27)"/></g><g class="cls-45"><path class="cls-8" d="M404.84,140.77A12.9,12.9,0,1,1,389.41,131,12.89,12.89,0,0,1,404.84,140.77Z"/></g><g class="cls-20"><circle class="cls-6" cx="372.65" cy="161.08" r="10.2" transform="translate(-8.21 20.5) rotate(-3.12)"/></g><g class="cls-21"><circle class="cls-6" cx="381.77" cy="182.65" r="18.07" transform="translate(197.33 563.56) rotate(-89.73)"/></g><g class="cls-17"><circle class="cls-22" cx="385.06" cy="239.67" r="8.7"/></g><g class="cls-23"><path class="cls-22" d="M355.85,262.74A10.16,10.16,0,1,1,342,258.81,10.15,10.15,0,0,1,355.85,262.74Z"/></g><g class="cls-24"><path class="cls-10" d="M300.28,289.88a4.72,4.72,0,1,1-6.52-1.45A4.72,4.72,0,0,1,300.28,289.88Z"/></g><g class="cls-25"><circle class="cls-8" cx="266.08" cy="279.72" r="22.99" transform="translate(-112.6 354.87) rotate(-57.66)"/></g><g class="cls-26"><circle class="cls-10" cx="205.04" cy="248.36" r="23.02" transform="translate(-90.36 376.67) rotate(-73.94)"/></g><g class="cls-27"><path class="cls-6" d="M150,223.67a7.08,7.08,0,1,1-3.73-9.3A7.07,7.07,0,0,1,150,223.67Z"/></g><g class="cls-28"><circle class="cls-8" cx="142.52" cy="208.38" r="23.24" transform="translate(-90.95 304.45) rotate(-78)"/></g><g class="cls-29"><circle class="cls-8" cx="154.17" cy="175.28" r="17.15" transform="translate(-70.37 111.45) rotate(-32.8)"/></g><g class="cls-13"><circle class="cls-22" cx="121.24" cy="137.53" r="19.28" transform="translate(-42.79 219.43) rotate(-75.13)"/></g><g class="cls-29"><circle class="cls-6" cx="158.63" cy="113.3" r="24.02" transform="translate(-31.1 68.53) rotate(-22.26)"/></g><g class="cls-11"><circle class="cls-10" cx="235" cy="101.53" r="22.85" transform="translate(54.06 282.62) rotate(-68.39)"/></g><g class="cls-30"><circle class="cls-6" cx="233.07" cy="55.59" r="12.05" transform="translate(0.06 111.43) rotate(-26.89)"/></g><g class="cls-21"><circle class="cls-6" cx="273.95" cy="51.06" r="7.7"/></g><circle class="cls-6" cx="355.91" cy="139.67" r="22.35" transform="translate(27.8 335.95) rotate(-52.32)"/><g class="cls-32"><path class="cls-10" d="M421.31,86.69a7.63,7.63,0,1,1-2.94-10.37A7.64,7.64,0,0,1,421.31,86.69Z"/></g><g class="cls-7"><path class="cls-22" d="M424.26,124.55a15.59,15.59,0,1,1-21.9-2.6A15.59,15.59,0,0,1,424.26,124.55Z"/></g><g class="cls-23"><circle class="cls-22" cx="450.54" cy="128.43" r="6.5"/></g><g class="cls-23"><path class="cls-22" d="M476.57,230a4.52,4.52,0,1,1-6.38.32A4.52,4.52,0,0,1,476.57,230Z"/></g><g class="cls-23"><path class="cls-22" d="M139.57,444a4.52,4.52,0,1,1-6.38.32A4.52,4.52,0,0,1,139.57,444Z"/></g><g class="cls-36"><path class="cls-22" d="M397.87,38.58a6.46,6.46,0,1,1-9.12.46A6.45,6.45,0,0,1,397.87,38.58Z"/></g><g class="cls-33"><circle class="cls-8" cx="178.08" cy="232.23" r="16.58" transform="translate(-101.55 318.55) rotate(-69.67)"/></g><g class="cls-46"><path class="cls-6" d="M453.2,255.92A12.34,12.34,0,1,1,447,239.63,12.33,12.33,0,0,1,453.2,255.92Z"/></g><g class="cls-16"><path class="cls-10" d="M435.08,309.09a6.62,6.62,0,1,1-8.58,3.75A6.61,6.61,0,0,1,435.08,309.09Z"/></g><g class="cls-34"><path class="cls-6" d="M371.62,292.94A10.73,10.73,0,1,1,369,278,10.72,10.72,0,0,1,371.62,292.94Z"/></g><g class="cls-35"><circle class="cls-10" cx="376.56" cy="376.68" r="13.94" transform="translate(-99.42 137.68) rotate(-18.35)"/></g><g class="cls-36"><path class="cls-22" d="M338.33,335a7.57,7.57,0,1,1-9.93,4A7.56,7.56,0,0,1,338.33,335Z"/></g><g class="cls-37"><path class="cls-8" d="M308.83,324a15.37,15.37,0,1,1-19.06-10.47A15.37,15.37,0,0,1,308.83,324Z"/></g><g class="cls-38"><path class="cls-8" d="M252.69,373.74a7.07,7.07,0,1,1-8.25,5.66A7.06,7.06,0,0,1,252.69,373.74Z"/></g><g class="cls-33"><circle class="cls-6" cx="180.8" cy="409.82" r="24.1" transform="translate(-236.83 247.88) rotate(-45)"/></g><path class="cls-8" d="M212.26,327.51a18.65,18.65,0,1,1-24.71-9.24A18.66,18.66,0,0,1,212.26,327.51Z"/><g class="cls-13"><path class="cls-22" d="M197.49,303.76a13.4,13.4,0,1,1-16,10.11A13.39,13.39,0,0,1,197.49,303.76Z"/></g><circle class="cls-6" cx="138.73" cy="320.71" r="7.73" transform="translate(-200.07 406.26) rotate(-80.78)"/><g class="cls-41"><circle class="cls-6" cx="118.62" cy="244.35" r="24.19" transform="translate(-146.14 183.69) rotate(-51.2)"/></g><g class="cls-13"><path class="cls-10" d="M106.59,251.69a5.21,5.21,0,1,1-4.13-6.1A5.21,5.21,0,0,1,106.59,251.69Z"/></g><g class="cls-11"><circle class="cls-8" cx="70.14" cy="239.51" r="16.49" transform="translate(-63.06 28.46) rotate(-15.93)"/></g><g class="cls-23"><path class="cls-8" d="M51.76,170.5A7.58,7.58,0,1,1,42,166.11,7.59,7.59,0,0,1,51.76,170.5Z"/></g><g class="cls-42"><path class="cls-10" d="M100.92,156.11a21,21,0,1,1-4.46-29.36A21,21,0,0,1,100.92,156.11Z"/></g><g class="cls-43"><circle class="cls-22" cx="158.74" cy="140.52" r="20.64" transform="translate(-34.98 226.65) rotate(-65.49)"/></g><g class="cls-44"><path class="cls-22" d="M108.09,32.48a6.57,6.57,0,1,1-8.57,3.58A6.57,6.57,0,0,1,108.09,32.48Z"/></g><g class="cls-30"><path class="cls-8" d="M189.12,38.65a10.34,10.34,0,1,1-9.68-11A10.34,10.34,0,0,1,189.12,38.65Z"/></g><path class="cls-6" d="M242.35,122.39a19,19,0,1,1-23.54-13.1A19.06,19.06,0,0,1,242.35,122.39Z"/><g class="cls-21"><path class="cls-8" d="M306,22.81a9,9,0,1,1-11.71-5A9,9,0,0,1,306,22.81Z"/></g><g class="cls-21"><path class="cls-22" d="M41.33,334.21a9,9,0,1,1-11.72-5A9,9,0,0,1,41.33,334.21Z"/></g><g class="cls-50"><path class="cls-22" d="M353.38,351.84a12.83,12.83,0,1,1,14.08,11.45A12.82,12.82,0,0,1,353.38,351.84Z"/></g><path class="cls-22" d="M71.38,406.84a12.83,12.83,0,1,1,14.08,11.45A12.82,12.82,0,0,1,71.38,406.84Z"/><path class="cls-8" d="M123.34,404.54a9.86,9.86,0,1,1,10.81,8.79A9.86,9.86,0,0,1,123.34,404.54Z"/><path class="cls-6" d="M335.38,56.84a12.83,12.83,0,1,1,14.08,11.45A12.82,12.82,0,0,1,335.38,56.84Z"/><path class="cls-22" d="M341.38,140.84a12.83,12.83,0,1,1,14.08,11.45A12.82,12.82,0,0,1,341.38,140.84Z"/><circle class="cls-22" cx="353.14" cy="251.53" r="16.86"/><path class="cls-10" d="M449.33,224.44a8.86,8.86,0,1,1,9.72,7.9A8.87,8.87,0,0,1,449.33,224.44Z"/><circle class="cls-8" cx="400.14" cy="286.53" r="7.12" transform="translate(-74.11 155.03) rotate(-20.11)"/><path class="cls-10" d="M381.51,268.46A14.51,14.51,0,1,1,394.87,284,14.51,14.51,0,0,1,381.51,268.46Z"/><path class="cls-10" d="M169.38,135.84a12.83,12.83,0,1,1,14.08,11.45A12.82,12.82,0,0,1,169.38,135.84Z"/><path class="cls-10" d="M257.31,77.13a5.86,5.86,0,1,1,6.43,5.23A5.86,5.86,0,0,1,257.31,77.13Z"/><path class="cls-6" d="M54.08,239.56a10.12,10.12,0,1,1,11.1,9A10.12,10.12,0,0,1,54.08,239.56Z"/><path class="cls-22" d="M134.05,321.05a5.12,5.12,0,1,1,5.62,4.57A5.11,5.11,0,0,1,134.05,321.05Z"/><path class="cls-6" d="M133.38,246.84a12.83,12.83,0,1,1,14.08,11.45A12.82,12.82,0,0,1,133.38,246.84Z"/><path class="cls-6" d="M275.38,356.84a12.83,12.83,0,1,1,14.08,11.45A12.82,12.82,0,0,1,275.38,356.84Z"/><g class="cls-11"><path class="cls-6" d="M151.31,364.13a5.86,5.86,0,1,1,6.43,5.23A5.86,5.86,0,0,1,151.31,364.13Z"/></g><circle class="cls-22" cx="212.09" cy="359.28" r="27.26" transform="translate(-191.93 255.2) rotate(-45)"/><g class="cls-46"><circle class="cls-10" cx="73.82" cy="199.58" r="12.34" transform="matrix(0.78, -0.63, 0.63, 0.78, -109.42, 91.4)"/></g><g class="cls-47"><circle class="cls-8" cx="237.81" cy="399.41" r="7.7" transform="translate(-217.9 491.12) rotate(-70.61)"/></g><g class="cls-47"><path class="cls-10" d="M241.94,422.41a9.16,9.16,0,1,1,12.52,3.3A9.16,9.16,0,0,1,241.94,422.41Z"/></g><circle class="cls-6" cx="315.78" cy="94.8" r="15.92" transform="translate(85.36 330.62) rotate(-62.37)"/><g class="cls-51"><circle class="cls-52" cx="253" cy="251" r="119"/></g><circle class="cls-4" cx="253" cy="251" r="104"/><circle class="cls-4" cx="253" cy="251" r="98.5"/><path d="M253,350.5A99.5,99.5,0,1,1,352.5,251,99.62,99.62,0,0,1,253,350.5Zm0-197A97.5,97.5,0,1,0,350.5,251,97.61,97.61,0,0,0,253,153.5Z"/><text class="cls-53" transform="translate(251.14 232.84)"> <tspan class="cls-54"><tspan class="cls-55" x="-92.93" y="27">Fr</tspan><tspan x="-72.65" y="27">om Sou</tspan><tspan class="cls-56" x="3.24" y="27">r</tspan><tspan x="11.89" y="27">ce Code</tspan><tspan x="-11.18" y="54">to </tspan><tspan x="-53.99" y="81">p</tspan><tspan class="cls-55" x="-40.87" y="81">r</tspan><tspan x="-32.47" y="81">oduction</tspan></tspan></text><rect class="cls-57" x="219.35" y="190.99" width="65.65" height="11.28" rx="2.52" ry="2.52"/><rect class="cls-57" x="219.35" y="168.35" width="65.65" height="11.28" rx="2.52" ry="2.52"/><path class="cls-57" d="M224,229a6.9,6.9,0,0,1-4.43-1.45.66.66,0,0,1-.24-.52.74.74,0,0,1,.73-.74.76.76,0,0,1,.46.14,5.52,5.52,0,0,0,3.53,1.28c2.25,0,3-1.12,3-2,0-3-7.47-1.35-7.47-5.5,0-1.92,1.86-3.23,4.33-3.23a6.55,6.55,0,0,1,4,1.24.68.68,0,0,1,.26.52.74.74,0,0,1-.73.7.72.72,0,0,1-.46-.16,5.32,5.32,0,0,0-3.23-1c-1.51,0-2.59.75-2.59,1.85,0,2.62,7.47,1.12,7.47,5.47C228.67,227.27,227.42,229,224,229Z"/><path class="cls-57" d="M236.1,229c-3.42,0-5.14-1.87-5.14-4.73v-6.53a.74.74,0,0,1,.81-.7.74.74,0,0,1,.76.7v6.49a3.57,3.57,0,0,0,7.14,0v-6.49a.74.74,0,0,1,.81-.7.73.73,0,0,1,.76.7v6.51C241.24,227.15,239.52,229,236.1,229Z"/><path class="cls-57" d="M255.45,228.9a.74.74,0,0,1-.78-.72v-9l-4.23,9.47a.41.41,0,0,1-.4.23.4.4,0,0,1-.36-.23l-4.21-9.47v9a.75.75,0,0,1-.8.72.74.74,0,0,1-.77-.72v-10a1.26,1.26,0,0,1,1.3-1.17,1.38,1.38,0,0,1,1.25.74l3.61,8.12,3.63-8.12a1.36,1.36,0,0,1,1.25-.74,1.26,1.26,0,0,1,1.3,1.17v10A.75.75,0,0,1,255.45,228.9Z"/><path class="cls-57" d="M270.79,228.9a.74.74,0,0,1-.77-.72v-9l-4.24,9.47a.41.41,0,0,1-.4.23.4.4,0,0,1-.36-.23l-4.21-9.47v9a.75.75,0,0,1-.8.72.74.74,0,0,1-.77-.72v-10a1.26,1.26,0,0,1,1.3-1.17,1.38,1.38,0,0,1,1.25.74l3.61,8.12,3.63-8.12a1.36,1.36,0,0,1,1.25-.74,1.26,1.26,0,0,1,1.3,1.17v10A.75.75,0,0,1,270.79,228.9Z"/><path class="cls-57" d="M284.15,228.9a.84.84,0,0,1-.76-.48l-.94-2.21h-6.28l-.94,2.21a.84.84,0,0,1-.76.48.82.82,0,0,1-.85-.77.67.67,0,0,1,.06-.28l4.34-10a1.38,1.38,0,0,1,1.29-.78,1.36,1.36,0,0,1,1.25.78l4.38,10a.67.67,0,0,1,.06.28A.84.84,0,0,1,284.15,228.9Zm-4.84-10.26-2.68,6.27H282Z"/></g></g></svg>